<?xml version="1.0" encoding="UTF-8"?>
<svg width="485px" height="552px" viewBox="0 0 485 552" version="1.1" xmlns="http://www.w3.org/2000/svg" xmlns:xlink="http://www.w3.org/1999/xlink">
    <!-- Generator: Sketch 43.1 (39012) - http://www.bohemiancoding.com/sketch -->
    <title>Slice 2</title>
    <desc>Created with Sketch.</desc>
    <defs>
        <rect id="path-1" x="0.0306154224" y="28.4627563" width="262.756652" height="358.606528" rx="13"></rect>
        <rect id="path-2" x="21.5242894" y="9.13665596" width="290.164599" height="395.111385" rx="13"></rect>
        <rect id="path-3" x="55.9141678" y="0.547278033" width="300.911436" height="410.142796" rx="13"></rect>
    </defs>
    <g id="Page-1" stroke="none" stroke-width="1" fill="none" fill-rule="evenodd">
        <g id="1" transform="translate(-271.000000, 69.000000)">
            <g id="new-logo" transform="translate(334.000000, 0.000000)">
                <g id="Rectangle">
                    <use fill="#FFDD55" fill-rule="evenodd" xlink:href="#path-1"></use>
                    <rect stroke="#000000" stroke-width="3" x="1.53061542" y="29.9627563" width="259.756652" height="355.606528" rx="13"></rect>
                </g>
                <g id="Rectangle">
                    <use fill="#FAA419" fill-rule="evenodd" xlink:href="#path-2"></use>
                    <rect stroke="#000000" stroke-width="3" x="23.0242894" y="10.636656" width="287.164599" height="392.111385" rx="13"></rect>
                </g>
                <mask id="mask-4" fill="white">
                    <use xlink:href="#path-3"></use>
                </mask>
                <g id="Mask">
                    <use fill="#FF5D5C" fill-rule="evenodd" xlink:href="#path-3"></use>
                    <rect stroke="#000000" stroke-width="3" x="54.4141678" y="-0.952721967" width="303.911436" height="413.142796" rx="13"></rect>
                </g>
                <g id="hand" mask="url(#mask-4)">
                    <g transform="translate(250.710652, 276.151109) rotate(-30.000000) translate(-250.710652, -276.151109) translate(132.710652, 84.151109)">
                        <path d="M87.2550616,97.4222822 C114.699603,97.4222822 136.9478,75.6632981 136.9478,48.822231 C136.9478,21.9811638 114.699603,0.222179731 87.2550616,0.222179731 C59.8105201,0.222179731 37.5623234,21.9811638 37.5623234,48.822231 C37.5623234,75.6632981 59.8105201,97.4222822 87.2550616,97.4222822 Z" id="Oval" stroke="none" fill-opacity="0.24000001" fill="#FFFFFF" fill-rule="evenodd"></path>
                        <path d="M87.0863845,86.2539082 C107.603701,86.2539082 124.236273,69.9870681 124.236273,49.920904 C124.236273,29.8547399 107.603701,13.5878999 87.0863845,13.5878999 C66.5690679,13.5878999 49.9364964,29.8547399 49.9364964,49.920904 C49.9364964,69.9870681 66.5690679,86.2539082 87.0863845,86.2539082 Z" id="Oval" stroke="none" fill="#E82C2B" fill-rule="evenodd"></path>
                        <path d="M86.8713957,79.5230557 C103.285249,79.5230557 116.591306,66.5095836 116.591306,50.4566523 C116.591306,34.4037211 103.285249,21.390249 86.8713957,21.390249 C70.4575424,21.390249 57.1514853,34.4037211 57.1514853,50.4566523 C57.1514853,66.5095836 70.4575424,79.5230557 86.8713957,79.5230557 Z" id="Oval" stroke="none" fill-opacity="0.24000001" fill="#FFFFFF" fill-rule="evenodd"></path>
                        <path d="M76.2697456,358.017268 C76.2697456,358.017268 124.342473,383.856324 145.068451,383.840622 C165.794428,383.82492 209.249163,357.916523 209.249163,357.916523 C209.249163,357.916523 231.991647,290.675338 234.164226,267.946723 C236.336804,245.218108 233.746297,213.231926 233.638348,188.935996 C233.530399,164.640066 221.573954,166.608288 198.360934,165.71645 L196.857541,181.402362 L196.857541,149.349655 C196.857541,149.349655 194.396192,132.115595 176.669873,131.100619 C158.943554,130.085643 155.200876,131.100619 155.200876,131.100619 C155.200876,131.100619 156.617589,111.081648 136.592778,110.616355 C131.038852,111.081648 116.421805,110.616355 116.421805,110.616355 C116.421805,110.616355 116.036054,76.9731472 114.22144,66.9427462 C112.406826,56.9123451 106.902234,45 88.7978618,45 C70.6934898,45 62.491591,59.717031 62.491591,66.9427462 C62.491591,74.1684613 62.1019368,203.922259 62.1019368,203.922259 C62.1019368,203.922259 34.4892809,183.25221 20.0954006,186.048442 C5.70152038,188.844675 4.20054941,193.024664 1.78875654,199.463905 C-0.623036334,205.903146 0.102325332,212.932755 0.102325332,212.932755 C0.102325332,212.932755 0.102325332,221.027472 4.20054941,228.620403 C8.29877349,236.213335 76.2697456,358.017268 76.2697456,358.017268 Z" id="Path-2" stroke="#000000" stroke-width="6" fill="#FFFFFF" fill-rule="evenodd" stroke-linecap="round" stroke-linejoin="round"></path>
                        <polygon id="Line" stroke="#000000" stroke-width="6" fill="none" stroke-linecap="round" stroke-linejoin="round" points="116.26086 91.7802935 115.519192 122.823284 116.26086 176.954717"></polygon>
                        <path d="M154.767258,128.303797 L154.767258,183.262477 L154.767258,128.303797 Z" id="Line" stroke="#000000" stroke-width="6" fill="none" stroke-linecap="round" stroke-linejoin="round"></path>
                        <polygon id="Line" stroke="#000000" stroke-width="6" fill="none" stroke-linecap="round" stroke-linejoin="round" points="197.674386 172.147901 197.303552 172.147901 197.674386 226.575451"></polygon>
                        <path d="M73.3282107,197.861287 C73.3282107,197.861287 74.6102435,215.839434 72.5423597,222.486823 C70.4744759,229.134211 65.550777,247.912063 65.550777,247.912063" id="Line" stroke="#000000" stroke-width="6" fill="none" stroke-linecap="round" stroke-linejoin="round" transform="translate(69.635920, 222.886675) rotate(-33.000000) translate(-69.635920, -222.886675) "></path>
                    </g>
                </g>
            </g>
        </g>
    </g>
</svg>