<?xml version="1.0" encoding="UTF-8"?>
<svg width="146px" height="309px" viewBox="0 0 146 309" version="1.1" xmlns="http://www.w3.org/2000/svg" xmlns:xlink="http://www.w3.org/1999/xlink">
    <!-- Generator: Sketch 43.1 (39012) - http://www.bohemiancoding.com/sketch -->
    <title>family room</title>
    <desc>Created with Sketch.</desc>
    <defs>
        <rect id="path-1" x="0.574766872" y="0" width="144.478851" height="308.869701" rx="11"></rect>
        <polygon id="path-3" points="0.0601453978 0.44702088 145.94977 0.44702088 145.94977 311.930842 0.0601453978 311.930842"></polygon>
        <linearGradient x1="-5.73181017%" y1="100%" x2="131.87777%" y2="100%" id="linearGradient-5">
            <stop stop-color="#FFFFFF" offset="0%"></stop>
            <stop stop-color="#B4B4C9" offset="100%"></stop>
        </linearGradient>
        <linearGradient x1="127.55438%" y1="100%" x2="-21.8145069%" y2="100%" id="linearGradient-6">
            <stop stop-color="#FFFFFF" offset="0%"></stop>
            <stop stop-color="#D9D9E4" offset="0%"></stop>
            <stop stop-color="#FDFDFD" offset="21.7812837%"></stop>
            <stop stop-color="#ECECF1" offset="20.6837472%"></stop>
            <stop stop-color="#B4B4C9" offset="100%"></stop>
        </linearGradient>
        <path d="M5.58348689,0.701338504 C5.8996334,0.701338504 6.15796117,0.963671226 6.15796117,1.27954124 L6.15796117,5.92122431 C6.15796117,6.23709433 5.8996334,6.49942705 5.58348689,6.49942705 L0.987692626,6.49942705 C0.671546114,6.49942705 0.413218344,6.23709433 0.413218344,5.92122431 L0.413218344,1.27954124 C0.413218344,0.963671226 0.671546114,0.701338504 0.987692626,0.701338504 L1.27466454,0.701338504 L1.27466454,0.123135768 L1.84913883,0.123135768 L1.84913883,0.701338504 L4.72151024,0.701338504 L4.72151024,0.123135768 L5.29651497,0.123135768 L5.29651497,0.701338504 L5.58348689,0.701338504 Z M5.58348689,5.92122431 L5.58348689,2.15219907 L0.987692626,2.15219907 L0.987692626,5.92122431 L5.58348689,5.92122431 Z" id="path-7"></path>
        <linearGradient x1="96.0208386%" y1="107.211531%" x2="0%" y2="-5.3156689%" id="linearGradient-9">
            <stop stop-color="#594DC5" offset="0%"></stop>
            <stop stop-color="#C96DD8" offset="100%"></stop>
        </linearGradient>
        <path d="M1.77892716,3.55785432 C2.76140886,3.55785432 3.55785432,2.76326685 3.55785432,1.77892716 C3.55785432,0.794587464 2.76140886,0 1.77892716,0 C0.796445455,0 0,0.794587464 0,1.77892716 C0,2.76326685 0.796445455,3.55785432 1.77892716,3.55785432 Z" id="path-10"></path>
        <path d="M1.77892716,3.55785432 C2.76140886,3.55785432 3.55785432,2.76326685 3.55785432,1.77892716 C3.55785432,0.794587464 2.76140886,0 1.77892716,0 C0.796445455,0 0,0.794587464 0,1.77892716 C0,2.76326685 0.796445455,3.55785432 1.77892716,3.55785432 Z" id="path-12"></path>
        <path d="M1.96664656,3.93329311 C3.05280757,3.93329311 3.93329311,3.05366574 3.93329311,1.96664656 C3.93329311,0.879627369 3.05280757,0 1.96664656,0 C0.880485542,0 -1.8189894e-12,0.879627369 -1.8189894e-12,1.96664656 C-1.8189894e-12,3.05366574 0.880485542,3.93329311 1.96664656,3.93329311 Z" id="path-14"></path>
    </defs>
    <g id="Page-1" stroke="none" stroke-width="1" fill="none" fill-rule="evenodd">
        <g id="family-room" transform="translate(0.107581, 0.021283)">
            <mask id="mask-2" fill="white">
                <use xlink:href="#path-1"></use>
            </mask>
            <use id="Mask" fill-opacity="0.4" fill="#FFFFFF" xlink:href="#path-1"></use>
            <g id="save-screen" mask="url(#mask-2)">
                <mask id="mask-4" fill="white">
                    <use xlink:href="#path-3"></use>
                </mask>
                <use id="Mask" fill="#0D8892" xlink:href="#path-3"></use>
                <rect id="Rectangle-11" fill="#FFFFFF" mask="url(#mask-4)" x="0.0601453978" y="-7.74598335" width="145.889624" height="319.676826" rx="13"></rect>
                <path d="M14.2434688,132.145216 C14.2434688,132.496781 14.3616316,132.780957 14.5979609,132.997755 C14.8342902,133.214553 15.1428809,133.322951 15.5237422,133.322951 C15.9358536,133.322951 16.258116,133.206741 16.4905391,132.974318 C16.7229621,132.741895 16.8391719,132.416703 16.8391719,131.998732 L16.8391719,129.001662 L16.1829219,129.001662 L16.1829219,131.995802 C16.1829219,132.236038 16.1257935,132.41963 16.0115352,132.546583 C15.8972768,132.673537 15.7327276,132.737013 15.5178828,132.737013 C15.3342881,132.737013 15.1843873,132.682326 15.0681758,132.572951 C14.9519643,132.463575 14.8919063,132.320998 14.888,132.145216 L14.2434688,132.145216 Z M20.6185525,130.04756 L19.9828103,130.04756 L19.9828103,131.881544 C19.9828103,132.133499 19.9149399,132.335645 19.779197,132.48799 C19.6434542,132.640334 19.4564443,132.716505 19.2181619,132.716505 C18.987692,132.716505 18.8148421,132.652541 18.6996072,132.524611 C18.5843722,132.39668 18.5267556,132.210647 18.5267556,131.966505 L18.5267556,130.04756 L17.8910134,130.04756 L17.8910134,132.086622 C17.8910134,132.451859 17.9901335,132.739453 18.1883767,132.949415 C18.3866199,133.159377 18.6595664,133.264357 19.0072244,133.264357 C19.2494131,133.264357 19.4525361,133.215041 19.6165994,133.116408 C19.7806627,133.017774 19.9085911,132.873733 20.0003884,132.684279 L20.0121072,132.684279 L20.0121072,133.229201 L20.6185525,133.229201 L20.6185525,130.04756 Z M21.6118003,133.229201 L22.2475425,133.229201 L22.2475425,131.392287 C22.2475425,131.142285 22.3154129,130.940627 22.4511558,130.787306 C22.5868986,130.633985 22.774885,130.557326 23.0151206,130.557326 C23.2475437,130.557326 23.4203935,130.622266 23.5336753,130.75215 C23.6469571,130.882033 23.7035972,131.068067 23.7035972,131.310255 L23.7035972,133.229201 L24.3393394,133.229201 L24.3393394,131.190138 C24.3393394,130.824902 24.2431489,130.537307 24.0507651,130.327345 C23.8583814,130.117383 23.5864114,130.012404 23.2348472,130.012404 C22.9887522,130.012404 22.7841644,130.060255 22.6210776,130.155958 C22.4579909,130.251662 22.3276211,130.394239 22.2299644,130.583693 L22.2182456,130.583693 L22.2182456,130.04756 L21.6118003,130.04756 L21.6118003,133.229201 Z M26.6421575,130.525099 C26.4136407,130.525099 26.2237012,130.600782 26.0723333,130.75215 C25.9209653,130.903518 25.8364935,131.102246 25.8189153,131.348341 L27.4331731,131.348341 C27.4273137,131.100293 27.3521191,130.901076 27.2075872,130.750685 C27.0630552,130.600294 26.8745805,130.525099 26.6421575,130.525099 Z M27.4302434,132.29756 L28.0366887,132.29756 C27.9917666,132.584671 27.8423541,132.818067 27.5884465,132.997755 C27.334539,133.177444 27.028878,133.267287 26.6714544,133.267287 C26.2105146,133.267287 25.8457721,133.122268 25.5772161,132.832228 C25.30866,132.542187 25.174384,132.148148 25.174384,131.650099 C25.174384,131.15205 25.3081718,130.753616 25.5757512,130.454787 C25.8433307,130.155957 26.1997724,130.006544 26.6450872,130.006544 C27.0825894,130.006544 27.4292656,130.147656 27.6851262,130.429884 C27.9409869,130.712112 28.0689153,131.094433 28.0689153,131.576857 L28.0689153,131.799513 L25.8159856,131.799513 L25.8159856,131.837599 C25.8159856,132.112991 25.8955747,132.33418 26.0547551,132.501173 C26.2139356,132.668166 26.4234062,132.751662 26.6831731,132.751662 C26.8687209,132.751662 27.0288756,132.711135 27.1636419,132.63008 C27.2984082,132.549024 27.3872745,132.438186 27.4302434,132.29756 Z M31.7194734,133.229201 L32.361075,133.229201 L32.361075,129.001662 L31.713614,129.001662 L31.5466218,129.120314 C31.4352932,129.199416 31.3058999,129.2917 31.1584383,129.397169 C31.0109766,129.502639 30.8810951,129.594923 30.7687898,129.674025 L30.6003328,129.792677 L30.6003328,130.437208 L30.767325,130.318556 C30.8786537,130.239454 31.0075586,130.148146 31.1540437,130.04463 C31.3005288,129.941114 31.4289455,129.849806 31.5392976,129.770705 L31.704825,129.652052 L31.7194734,129.652052 L31.7194734,133.229201 Z M35.2586197,133.308302 C34.7879142,133.308302 34.4036407,133.194046 34.1057876,132.965529 C33.8079346,132.737012 33.6590103,132.444046 33.6590103,132.086622 C33.6590103,131.81709 33.7459235,131.582717 33.9197525,131.383497 C34.0935815,131.184278 34.3201417,131.056349 34.59944,130.999708 L34.59944,130.98506 C34.3650638,130.920607 34.1780539,130.802932 34.0384048,130.632033 C33.8987557,130.461133 33.8289322,130.262405 33.8289322,130.035841 C33.8289322,129.713574 33.9636964,129.447463 34.233229,129.237501 C34.5027616,129.027539 34.8445551,128.92256 35.2586197,128.92256 C35.6746374,128.92256 36.0164308,129.027539 36.2840103,129.237501 C36.5515897,129.447463 36.6853775,129.714551 36.6853775,130.038771 C36.6853775,130.261428 36.6165305,130.457715 36.4788345,130.627638 C36.3411385,130.797561 36.1541287,130.9167 35.9177993,130.98506 L35.9177993,130.999708 C36.1990508,131.058302 36.4260993,131.187207 36.5989517,131.386427 C36.7718041,131.585647 36.858229,131.819043 36.858229,132.086622 C36.858229,132.444046 36.7093047,132.737012 36.4114517,132.965529 C36.1135986,133.194046 35.7293251,133.308302 35.2586197,133.308302 Z M35.2586197,132.780958 C35.5281523,132.780958 35.7488532,132.711135 35.920729,132.571486 C36.0926049,132.431837 36.1785415,132.254592 36.1785415,132.039747 C36.1785415,131.820996 36.0926049,131.641799 35.920729,131.50215 C35.7488532,131.362501 35.5281523,131.292677 35.2586197,131.292677 C34.9890871,131.292677 34.7678979,131.362501 34.5950454,131.50215 C34.422193,131.641799 34.3357681,131.820996 34.3357681,132.039747 C34.3357681,132.254592 34.422193,132.431837 34.5950454,132.571486 C34.7678979,132.711135 34.9890871,132.780958 35.2586197,132.780958 Z M35.2586197,130.765333 C35.4851833,130.765333 35.6717049,130.703322 35.81819,130.579298 C35.9646751,130.455274 36.0379165,130.297561 36.0379165,130.106154 C36.0379165,129.91084 35.9651634,129.751662 35.8196548,129.628615 C35.6741463,129.505567 35.4871364,129.444044 35.2586197,129.444044 C35.0281498,129.444044 34.8406516,129.506055 34.6961197,129.63008 C34.5515877,129.754104 34.4793228,129.912793 34.4793228,130.106154 C34.4793228,130.297561 34.5515877,130.455274 34.6961197,130.579298 C34.8406516,130.703322 35.0281498,130.765333 35.2586197,130.765333 Z" id="June-18" fill="url(#linearGradient-5)" opacity="0.775249094" mask="url(#mask-4)"></path>
                <path d="M102.434317,132.145216 C102.434317,132.496781 102.55248,132.780957 102.788809,132.997755 C103.025139,133.214553 103.333729,133.322951 103.71459,133.322951 C104.126702,133.322951 104.448964,133.206741 104.681387,132.974318 C104.91381,132.741895 105.03002,132.416703 105.03002,131.998732 L105.03002,129.001662 L104.37377,129.001662 L104.37377,131.995802 C104.37377,132.236038 104.316642,132.41963 104.202383,132.546583 C104.088125,132.673537 103.923576,132.737013 103.708731,132.737013 C103.525136,132.737013 103.375236,132.682326 103.259024,132.572951 C103.142813,132.463575 103.082755,132.320998 103.078848,132.145216 L102.434317,132.145216 Z M108.809401,130.04756 L108.173659,130.04756 L108.173659,131.881544 C108.173659,132.133499 108.105788,132.335645 107.970045,132.48799 C107.834302,132.640334 107.647293,132.716505 107.40901,132.716505 C107.17854,132.716505 107.00569,132.652541 106.890455,132.524611 C106.77522,132.39668 106.717604,132.210647 106.717604,131.966505 L106.717604,130.04756 L106.081862,130.04756 L106.081862,132.086622 C106.081862,132.451859 106.180982,132.739453 106.379225,132.949415 C106.577468,133.159377 106.850415,133.264357 107.198073,133.264357 C107.440261,133.264357 107.643384,133.215041 107.807448,133.116408 C107.971511,133.017774 108.099439,132.873733 108.191237,132.684279 L108.202955,132.684279 L108.202955,133.229201 L108.809401,133.229201 L108.809401,130.04756 Z M109.802649,133.229201 L110.438391,133.229201 L110.438391,131.392287 C110.438391,131.142285 110.506261,130.940627 110.642004,130.787306 C110.777747,130.633985 110.965733,130.557326 111.205969,130.557326 C111.438392,130.557326 111.611242,130.622266 111.724524,130.75215 C111.837805,130.882033 111.894445,131.068067 111.894445,131.310255 L111.894445,133.229201 L112.530188,133.229201 L112.530188,131.190138 C112.530188,130.824902 112.433997,130.537307 112.241613,130.327345 C112.04923,130.117383 111.77726,130.012404 111.425695,130.012404 C111.1796,130.012404 110.975013,130.060255 110.811926,130.155958 C110.648839,130.251662 110.518469,130.394239 110.420813,130.583693 L110.409094,130.583693 L110.409094,130.04756 L109.802649,130.04756 L109.802649,133.229201 Z M114.833006,130.525099 C114.604489,130.525099 114.414549,130.600782 114.263182,130.75215 C114.111814,130.903518 114.027342,131.102246 114.009764,131.348341 L115.624021,131.348341 C115.618162,131.100293 115.542967,130.901076 115.398435,130.750685 C115.253903,130.600294 115.065429,130.525099 114.833006,130.525099 Z M115.621092,132.29756 L116.227537,132.29756 C116.182615,132.584671 116.033202,132.818067 115.779295,132.997755 C115.525387,133.177444 115.219726,133.267287 114.862303,133.267287 C114.401363,133.267287 114.03662,133.122268 113.768064,132.832228 C113.499508,132.542187 113.365232,132.148148 113.365232,131.650099 C113.365232,131.15205 113.49902,130.753616 113.766599,130.454787 C114.034179,130.155957 114.390621,130.006544 114.835935,130.006544 C115.273438,130.006544 115.620114,130.147656 115.875974,130.429884 C116.131835,130.712112 116.259764,131.094433 116.259764,131.576857 L116.259764,131.799513 L114.006834,131.799513 L114.006834,131.837599 C114.006834,132.112991 114.086423,132.33418 114.245603,132.501173 C114.404784,132.668166 114.614254,132.751662 114.874021,132.751662 C115.059569,132.751662 115.219724,132.711135 115.35449,132.63008 C115.489256,132.549024 115.578123,132.438186 115.621092,132.29756 Z M118.805829,130.240919 L118.805829,130.246779 L119.426923,130.246779 L119.426923,130.23799 C119.426923,130.017285 119.504071,129.833205 119.658369,129.685744 C119.812666,129.538282 120.006024,129.464552 120.238447,129.464552 C120.459151,129.464552 120.644208,129.529981 120.793622,129.660841 C120.943037,129.791701 121.017744,129.950879 121.017744,130.13838 C121.017744,130.304397 120.973799,130.460157 120.885908,130.605665 C120.798017,130.751174 120.625167,130.958691 120.367353,131.228224 L118.840986,132.783888 L118.840986,133.229201 L121.732587,133.229201 L121.732587,132.67549 L119.725751,132.67549 L119.725751,132.660841 L120.783369,131.597365 C121.091964,131.280957 121.316083,131.014846 121.455732,130.799025 C121.595381,130.583203 121.665204,130.352249 121.665204,130.106154 C121.665204,129.770215 121.531417,129.488967 121.263837,129.262404 C120.996258,129.03584 120.6613,128.92256 120.258954,128.92256 C119.839031,128.92256 119.491866,129.04707 119.217451,129.296095 C118.943035,129.54512 118.805829,129.860058 118.805829,130.240919 Z M124.193609,133.308302 C123.685794,133.308302 123.289801,133.11055 123.00562,132.71504 C122.721439,132.319531 122.579351,131.784868 122.579351,131.111037 C122.579351,130.443064 122.722416,129.911332 123.00855,129.515822 C123.294684,129.120312 123.6897,128.92256 124.193609,128.92256 C124.697517,128.92256 125.091556,129.119335 125.375737,129.512892 C125.659919,129.906449 125.802007,130.438182 125.802007,131.108107 C125.802007,131.781938 125.660895,132.317089 125.378667,132.713576 C125.096439,133.110062 124.701424,133.308302 124.193609,133.308302 Z M124.193609,132.757521 C124.496344,132.757521 124.729741,132.611038 124.893804,132.318068 C125.057867,132.025098 125.139898,131.622758 125.139898,131.111037 C125.139898,130.607128 125.056891,130.208206 124.890874,129.914259 C124.724858,129.620312 124.492438,129.473341 124.193609,129.473341 C123.894779,129.473341 123.661871,129.620801 123.494878,129.915724 C123.327885,130.210647 123.24439,130.609081 123.24439,131.111037 C123.24439,131.620805 123.327397,132.022656 123.493413,132.316603 C123.65943,132.61055 123.892826,132.757521 124.193609,132.757521 Z" id="June-20" fill="url(#linearGradient-6)" opacity="0.775249094" mask="url(#mask-4)"></path>
                <path d="M52.8062873,131.934018 C52.8062873,132.461364 52.9835316,132.88763 53.3380256,133.212826 C53.6925195,133.538023 54.1554055,133.700619 54.7266974,133.700619 C55.3448646,133.700619 55.8282582,133.526305 56.1768927,133.17767 C56.5255273,132.829036 56.699842,132.341248 56.699842,131.714291 L56.699842,127.218686 L55.715467,127.218686 L55.715467,131.709897 C55.715467,132.07025 55.6297745,132.345638 55.4583869,132.536069 C55.2869993,132.726499 55.0401756,132.821713 54.7179084,132.821713 C54.4425164,132.821713 54.2176651,132.739683 54.0433478,132.575619 C53.8690305,132.411556 53.7789436,132.197691 53.7730842,131.934018 L52.8062873,131.934018 Z M62.3689129,128.787534 L61.4152996,128.787534 L61.4152996,131.53851 C61.4152996,131.916442 61.313494,132.219661 61.1098797,132.448178 C60.9062654,132.676695 60.6257506,132.790951 60.2683269,132.790951 C59.9226221,132.790951 59.6633473,132.695005 59.4904949,132.50311 C59.3176425,132.311214 59.2312176,132.032164 59.2312176,131.665951 L59.2312176,128.787534 L58.2776043,128.787534 L58.2776043,131.846127 C58.2776043,132.393982 58.4262844,132.825374 58.7236492,133.140317 C59.021014,133.45526 59.4304337,133.612729 59.9519207,133.612729 C60.3152037,133.612729 60.6198882,133.538755 60.8659832,133.390805 C61.1120782,133.242855 61.3039708,133.026793 61.4416668,132.742612 L61.4592449,132.742612 L61.4592449,133.559994 L62.3689129,133.559994 L62.3689129,128.787534 Z M63.8587845,133.559994 L64.8123978,133.559994 L64.8123978,130.804623 C64.8123978,130.429621 64.9142035,130.127134 65.1178177,129.897153 C65.321432,129.667171 65.6034117,129.552182 65.963765,129.552182 C66.3123996,129.552182 66.5716743,129.649593 66.741597,129.844418 C66.9115198,130.039243 66.9964799,130.318293 66.9964799,130.681576 L66.9964799,133.559994 L67.9500931,133.559994 L67.9500931,130.501401 C67.9500931,129.953546 67.8058075,129.522154 67.5172318,129.207211 C67.2286562,128.892268 66.8207012,128.734799 66.2933549,128.734799 C65.9242124,128.734799 65.6173307,128.806576 65.3727006,128.950131 C65.1280704,129.093687 64.9325157,129.307552 64.7860306,129.591733 L64.7684525,129.591733 L64.7684525,128.787534 L63.8587845,128.787534 L63.8587845,133.559994 Z M71.4043203,129.503842 C71.0615451,129.503842 70.7766359,129.617366 70.549584,129.844418 C70.322532,130.07147 70.1958243,130.369563 70.169457,130.738705 L72.5908437,130.738705 C72.5820546,130.366633 72.4692628,130.067808 72.2524648,129.842221 C72.0356669,129.616634 71.7529548,129.503842 71.4043203,129.503842 Z M72.5864492,132.162534 L73.4961172,132.162534 C73.428734,132.5932 73.2046152,132.943294 72.8237539,133.212826 C72.4428926,133.482359 71.9844011,133.617123 71.4482656,133.617123 C70.7568559,133.617123 70.2097422,133.399596 69.8069082,132.964535 C69.4040741,132.529475 69.2026601,131.938416 69.2026601,131.191342 C69.2026601,130.444268 69.4033417,129.846618 69.8047109,129.398373 C70.2060801,128.950129 70.7407427,128.72601 71.4087148,128.72601 C72.0649681,128.72601 72.5849824,128.937678 72.9687734,129.36102 C73.3525644,129.784362 73.544457,130.357842 73.544457,131.081479 L73.544457,131.415463 L70.1650625,131.415463 L70.1650625,131.472592 C70.1650625,131.88568 70.284446,132.217464 70.5232168,132.467953 C70.7619875,132.718443 71.0761933,132.843686 71.4658437,132.843686 C71.7441654,132.843686 71.9843974,132.782895 72.1865469,132.661313 C72.3886963,132.53973 72.5219957,132.373472 72.5864492,132.162534 Z M79.0202941,133.559994 L79.9826965,133.559994 L79.9826965,127.218686 L79.0115051,127.218686 L78.7610168,127.396664 C78.5940238,127.515317 78.3999339,127.653744 78.1787414,127.811948 C77.9575489,127.970151 77.7627266,128.108578 77.5942687,128.227231 L77.3415832,128.405209 L77.3415832,129.372006 L77.5920715,129.194028 C77.7590645,129.075375 77.9524219,128.938413 78.1721496,128.783139 C78.3918772,128.627865 78.5845023,128.490903 78.7500304,128.37225 L78.9983215,128.194272 L79.0202941,128.194272 L79.0202941,133.559994 Z M84.1576267,133.678647 C83.5951239,133.678647 83.1124627,133.523375 82.7096287,133.212826 C82.3067946,132.902278 82.0585061,132.49652 81.9647556,131.995541 L82.9535252,131.995541 C83.0296974,132.253355 83.1783776,132.462093 83.3995701,132.621762 C83.6207626,132.781431 83.8778401,132.861264 84.1708103,132.861264 C84.66593,132.861264 85.05118,132.64154 85.3265721,132.202084 C85.6019641,131.762629 85.739658,131.144471 85.739658,130.347592 L85.7220799,130.347592 C85.5961027,130.658141 85.3771107,130.908626 85.0650974,131.099057 C84.7530842,131.289488 84.3920038,131.384701 83.9818455,131.384701 C83.3812565,131.384701 82.880285,131.185485 82.4789158,130.787045 C82.0775466,130.388606 81.876865,129.889099 81.876865,129.28851 C81.876865,128.652765 82.0951246,128.128356 82.5316502,127.715268 C82.9681758,127.30218 83.5218812,127.095639 84.192783,127.095639 C85.1742332,127.095639 85.8758863,127.539482 86.2977635,128.427182 C86.5585069,128.928161 86.6888767,129.552178 86.6888767,130.299252 C86.6888767,131.359804 86.4662227,132.188165 86.020908,132.78436 C85.5755933,133.380554 84.9545057,133.678647 84.1576267,133.678647 Z M84.192783,130.580502 C84.5795037,130.580502 84.9024985,130.456724 85.1617771,130.209164 C85.4210558,129.961605 85.5506931,129.650328 85.5506931,129.275326 C85.5506931,128.897395 85.4210558,128.579527 85.1617771,128.321713 C84.9024985,128.063899 84.5838982,127.934994 84.2059666,127.934994 C83.828035,127.934994 83.5087023,128.063167 83.2479588,128.319516 C82.9872153,128.575865 82.8568455,128.888606 82.8568455,129.257748 C82.8568455,129.63861 82.9835532,129.95428 83.2369724,130.20477 C83.4903917,130.455259 83.808992,130.580502 84.192783,130.580502 Z" id="June-19" fill="#9D4DDE" mask="url(#mask-4)"></path>
                <path d="M18.6995234,52.9878713 L18.6995234,50.3335744 L21.4241328,50.3335744 L21.4241328,49.503008 L18.6995234,49.503008 L18.6995234,47.4991018 L21.6746211,47.4991018 L21.6746211,46.6465627 L17.7151484,46.6465627 L17.7151484,52.9878713 L18.6995234,52.9878713 Z M24.0938594,52.2759572 C24.4483533,52.2759572 24.7442488,52.1741516 24.9815547,51.9705373 C25.2188606,51.766923 25.3375117,51.5083807 25.3375117,51.1949025 L25.3375117,50.8257619 L24.1773555,50.9004689 C23.5181725,50.9414848 23.1885859,51.1758574 23.1885859,51.6035939 C23.1885859,51.8057434 23.2706164,51.9683394 23.4346797,52.0913869 C23.598743,52.2144344 23.8184674,52.2759572 24.0938594,52.2759572 Z M23.8389766,53.0362111 C23.3643648,53.0362111 22.9769175,52.9065738 22.6766231,52.6472951 C22.3763286,52.3880165 22.2261836,52.0459789 22.2261836,51.6211721 C22.2261836,50.7686287 22.8340877,50.3042779 24.0499141,50.2281057 L25.3375117,50.1533986 L25.3375117,49.784258 C25.3375117,49.508866 25.2503544,49.2993954 25.0760371,49.15584 C24.9017198,49.0122846 24.6548961,48.940508 24.3355586,48.940508 C24.0748151,48.940508 23.8565556,49.0020308 23.6807734,49.1250783 C23.5049913,49.2481258 23.396594,49.4136515 23.3555781,49.6216604 L22.4634883,49.6216604 C22.4781368,49.1968535 22.6641701,48.846027 23.0215938,48.5691701 C23.3790174,48.2923133 23.8257903,48.1538869 24.3619258,48.1538869 C24.9420068,48.1538869 25.4063576,48.2959753 25.7549922,48.5801564 C26.1036267,48.8643376 26.2779414,49.2422635 26.2779414,49.7139455 L26.2779414,52.9878713 L25.3682734,52.9878713 L25.3682734,52.1924611 L25.3463008,52.1924611 C25.2144642,52.4532046 25.0108529,52.6590131 24.7354609,52.8098928 C24.4600689,52.9607724 24.1612438,53.0362111 23.8389766,53.0362111 Z M27.4359492,52.9878713 L28.3895625,52.9878713 L28.3895625,50.0611135 C28.3895625,49.7505651 28.4847764,49.4927551 28.675207,49.287676 C28.8656377,49.0825968 29.1073345,48.9800588 29.4003047,48.9800588 C29.6786264,48.9800588 29.900548,49.0620892 30.0660762,49.2261525 C30.2316044,49.3902159 30.3143672,49.6099402 30.3143672,49.8853322 L30.3143672,52.9878713 L31.2504024,52.9878713 L31.2504024,50.0259572 C31.2504024,49.7212682 31.343419,49.4707824 31.5294551,49.2744924 C31.7154912,49.0782023 31.9549907,48.9800588 32.2479609,48.9800588 C32.5467906,48.9800588 32.7767687,49.0657513 32.9379024,49.2371389 C33.099036,49.4085264 33.1796016,49.6509557 33.1796016,49.9644338 L33.1796016,52.9878713 L34.1288203,52.9878713 L34.1288203,49.7359182 C34.1288203,49.2583767 33.9874643,48.8767887 33.7047481,48.5911428 C33.4220318,48.3054968 33.0448383,48.162676 32.5731563,48.162676 C32.2333108,48.162676 31.9308236,48.2447064 31.6656856,48.4087697 C31.4005475,48.572833 31.2049928,48.7998816 31.0790156,49.0899221 L31.057043,49.0899221 C30.9632925,48.7940222 30.7999641,48.5655088 30.5670527,48.4043752 C30.3341414,48.2432416 30.0521618,48.162676 29.7211055,48.162676 C29.4076273,48.162676 29.1300422,48.2395795 28.8883418,48.3933889 C28.6466414,48.5471982 28.4715943,48.7574012 28.3631953,49.0240041 L28.3456172,49.0240041 L28.3456172,48.2154104 L27.4359492,48.2154104 L27.4359492,52.9878713 Z M35.3175899,52.9878713 L36.2712031,52.9878713 L36.2712031,48.2154104 L35.3175899,48.2154104 L35.3175899,52.9878713 Z M35.7965938,47.534258 C35.951868,47.534258 36.0837026,47.4807917 36.1921016,47.3738576 C36.3005006,47.2669235 36.3546992,47.1372861 36.3546992,46.9849416 C36.3546992,46.8296674 36.3005006,46.6992976 36.1921016,46.5938283 C36.0837026,46.488359 35.951868,46.4356252 35.7965938,46.4356252 C35.6413195,46.4356252 35.5087525,46.488359 35.3988887,46.5938283 C35.2890249,46.6992976 35.2340938,46.8296674 35.2340938,46.9849416 C35.2340938,47.1372861 35.2890249,47.2669235 35.3988887,47.3738576 C35.5087525,47.4807917 35.6413195,47.534258 35.7965938,47.534258 Z M37.5214961,52.9878713 L38.4751094,52.9878713 L38.4751094,46.3609182 L37.5214961,46.3609182 L37.5214961,52.9878713 Z M40.1736445,54.7237111 C40.6570454,54.7237111 41.0327741,54.6145814 41.3008418,54.3963186 C41.5689096,54.1780557 41.8040146,53.7818195 42.0061641,53.2075979 L43.7947383,48.2154104 L42.7927852,48.2154104 L41.566711,52.1177541 L41.5447383,52.1177541 L40.3186641,48.2154104 L39.2947383,48.2154104 L41.0261836,53.0010549 L40.9514766,53.2471486 C40.8723746,53.5020327 40.7654421,53.6822067 40.6306758,53.787676 C40.4959095,53.8931453 40.3142707,53.9458791 40.0857539,53.9458791 C40.0447381,53.9458791 39.9927367,53.9444143 39.9297481,53.9414846 C39.8667595,53.9385549 39.8176877,53.9326956 39.7825313,53.9239064 L39.7825313,54.6973439 C39.8088986,54.7032034 39.8477166,54.7075978 39.8989863,54.7105275 C39.9502561,54.7134572 40.0022576,54.7163869 40.0549922,54.7193166 C40.1077268,54.7222463 40.1472772,54.7237111 40.1736445,54.7237111 Z M47.9256953,47.4727346 L47.9256953,49.7534963 L49.3407344,49.7534963 C49.7215957,49.7534963 50.0167587,49.6538879 50.2262324,49.4546682 C50.4357061,49.2554484 50.5404414,48.9742012 50.5404414,48.6109182 C50.5404414,48.2564242 50.4313117,47.9781067 50.2130489,47.7759572 C49.994786,47.5738078 49.6952285,47.4727346 49.3143672,47.4727346 L47.9256953,47.4727346 Z M47.9256953,50.5489064 L47.9256953,52.9878713 L46.9413203,52.9878713 L46.9413203,46.6465627 L49.4330196,46.6465627 C50.0863431,46.6465627 50.6026954,46.8216098 50.9820918,47.1717092 C51.3614882,47.5218086 51.5511836,47.9927511 51.5511836,48.584551 C51.5511836,49.0122875 51.4427863,49.3880162 51.2259883,49.7117482 C51.0091903,50.0354803 50.7074355,50.2632613 50.3207149,50.3950979 L51.744543,52.9878713 L50.6063594,52.9878713 L49.3143672,50.5489064 L47.9256953,50.5489064 Z M54.6296016,53.0450002 C53.9381919,53.0450002 53.388881,52.8252758 52.9816524,52.3858205 C52.5744238,51.9463652 52.3708125,51.3516446 52.3708125,50.6016408 C52.3708125,49.8516371 52.5751562,49.256184 52.9838496,48.8152639 C53.3925431,48.3743437 53.9411216,48.1538869 54.6296016,48.1538869 C55.3180816,48.1538869 55.8659277,48.3743437 56.2731563,48.8152639 C56.6803849,49.256184 56.8839961,49.8516371 56.8839961,50.6016408 C56.8839961,51.3516446 56.6811173,51.9463652 56.2753535,52.3858205 C55.8695898,52.8252758 55.3210113,53.0450002 54.6296016,53.0450002 Z M54.6296016,52.2539846 C55.0339005,52.2539846 55.3495712,52.1082341 55.5766231,51.8167287 C55.803675,51.5252233 55.9171992,51.1201981 55.9171992,50.6016408 C55.9171992,50.0801538 55.803675,49.6743962 55.5766231,49.3843557 C55.3495712,49.0943152 55.0339005,48.9492971 54.6296016,48.9492971 C54.2253027,48.9492971 53.9088996,49.0950476 53.6803828,49.3865529 C53.4518661,49.6780583 53.3376094,50.0830835 53.3376094,50.6016408 C53.3376094,51.1201981 53.4518661,51.5252233 53.6803828,51.8167287 C53.9088996,52.1082341 54.2253027,52.2539846 54.6296016,52.2539846 Z M59.8921016,53.0450002 C59.2006919,53.0450002 58.651381,52.8252758 58.2441524,52.3858205 C57.8369238,51.9463652 57.6333125,51.3516446 57.6333125,50.6016408 C57.6333125,49.8516371 57.8376562,49.256184 58.2463496,48.8152639 C58.6550431,48.3743437 59.2036216,48.1538869 59.8921016,48.1538869 C60.5805816,48.1538869 61.1284277,48.3743437 61.5356563,48.8152639 C61.9428849,49.256184 62.1464961,49.8516371 62.1464961,50.6016408 C62.1464961,51.3516446 61.9436173,51.9463652 61.5378535,52.3858205 C61.1320898,52.8252758 60.5835113,53.0450002 59.8921016,53.0450002 Z M59.8921016,52.2539846 C60.2964005,52.2539846 60.6120712,52.1082341 60.8391231,51.8167287 C61.066175,51.5252233 61.1796992,51.1201981 61.1796992,50.6016408 C61.1796992,50.0801538 61.066175,49.6743962 60.8391231,49.3843557 C60.6120712,49.0943152 60.2964005,48.9492971 59.8921016,48.9492971 C59.4878027,48.9492971 59.1713996,49.0950476 58.9428828,49.3865529 C58.7143661,49.6780583 58.6001094,50.0830835 58.6001094,50.6016408 C58.6001094,51.1201981 58.7143661,51.5252233 58.9428828,51.8167287 C59.1713996,52.1082341 59.4878027,52.2539846 59.8921016,52.2539846 Z M63.1111446,52.9878713 L64.0647578,52.9878713 L64.0647578,50.0611135 C64.0647578,49.7505651 64.1599717,49.4927551 64.3504024,49.287676 C64.540833,49.0825968 64.7825298,48.9800588 65.0755,48.9800588 C65.3538217,48.9800588 65.5757433,49.0620892 65.7412715,49.2261525 C65.9067997,49.3902159 65.9895625,49.6099402 65.9895625,49.8853322 L65.9895625,52.9878713 L66.9255977,52.9878713 L66.9255977,50.0259572 C66.9255977,49.7212682 67.0186143,49.4707824 67.2046504,49.2744924 C67.3906865,49.0782023 67.6301861,48.9800588 67.9231563,48.9800588 C68.2219859,48.9800588 68.4519641,49.0657513 68.6130977,49.2371389 C68.7742313,49.4085264 68.8547969,49.6509557 68.8547969,49.9644338 L68.8547969,52.9878713 L69.8040157,52.9878713 L69.8040157,49.7359182 C69.8040157,49.2583767 69.6626596,48.8767887 69.3799434,48.5911428 C69.0972271,48.3054968 68.7200336,48.162676 68.2483516,48.162676 C67.9085061,48.162676 67.6060189,48.2447064 67.3408809,48.4087697 C67.0757428,48.572833 66.8801882,48.7998816 66.754211,49.0899221 L66.7322383,49.0899221 C66.6384878,48.7940222 66.4751594,48.5655088 66.2422481,48.4043752 C66.0093368,48.2432416 65.7273572,48.162676 65.3963008,48.162676 C65.0828227,48.162676 64.8052376,48.2395795 64.5635371,48.3933889 C64.3218367,48.5471982 64.1467896,48.7574012 64.0383907,49.0240041 L64.0208125,49.0240041 L64.0208125,48.2154104 L63.1111446,48.2154104 L63.1111446,52.9878713 Z M73.0472774,51.2212697 C73.0795041,51.7925616 73.3146092,52.2473911 73.7525996,52.5857717 C74.1905901,52.9241523 74.7611411,53.09334 75.4642696,53.09334 C76.2142733,53.09334 76.8097263,52.9204902 77.2506465,52.5747854 C77.6915667,52.2290805 77.9120235,51.7588704 77.9120235,51.1641408 C77.9120235,50.7012479 77.7677378,50.3313785 77.4791621,50.0545217 C77.1905865,49.7776648 76.7211088,49.5616025 76.0707149,49.4063283 L75.3719844,49.2349416 C74.9647558,49.1353317 74.6710576,49.0144833 74.4908809,48.8723928 C74.3107042,48.7303022 74.2206172,48.5464662 74.2206172,48.3208791 C74.2206172,48.0396277 74.3400008,47.8111144 74.5787715,47.6353322 C74.8175422,47.4595501 75.1273536,47.3716604 75.5082149,47.3716604 C75.8920059,47.3716604 76.2047469,47.4617473 76.4464473,47.641924 C76.6881477,47.8221007 76.8236444,48.0703892 76.8529414,48.3867971 L77.8109493,48.3867971 C77.7963007,47.8389428 77.5780412,47.3943671 77.1561641,47.0530568 C76.734287,46.7117465 76.1893706,46.5410939 75.5213985,46.5410939 C74.8446373,46.5410939 74.2909319,46.7117465 73.8602657,47.0530568 C73.4295994,47.3943671 73.2142696,47.8389428 73.2142696,48.3867971 C73.2142696,49.2539889 73.7826233,49.8238074 74.9193477,50.0962697 L75.741125,50.2940236 C76.1512833,50.3936335 76.4486436,50.5218061 76.6332149,50.6785451 C76.8177861,50.8352842 76.9100703,51.0366982 76.9100703,51.2827932 C76.9100703,51.5640446 76.780433,51.7976848 76.5211543,51.9837209 C76.2618757,52.169757 75.9330216,52.2627736 75.5345821,52.2627736 C75.1185644,52.2627736 74.7706675,52.1675597 74.4908809,51.9771291 C74.2110943,51.7866985 74.0536252,51.5347479 74.0184688,51.2212697 L73.0472774,51.2212697 Z M80.5553829,52.2759572 C80.9098768,52.2759572 81.2057723,52.1741516 81.4430782,51.9705373 C81.680384,51.766923 81.7990352,51.5083807 81.7990352,51.1949025 L81.7990352,50.8257619 L80.6388789,50.9004689 C79.979696,50.9414848 79.6501094,51.1758574 79.6501094,51.6035939 C79.6501094,51.8057434 79.7321398,51.9683394 79.8962032,52.0913869 C80.0602665,52.2144344 80.2799909,52.2759572 80.5553829,52.2759572 Z M80.3005,53.0362111 C79.8258883,53.0362111 79.438441,52.9065738 79.1381465,52.6472951 C78.8378521,52.3880165 78.6877071,52.0459789 78.6877071,51.6211721 C78.6877071,50.7686287 79.2956111,50.3042779 80.5114375,50.2281057 L81.7990352,50.1533986 L81.7990352,49.784258 C81.7990352,49.508866 81.7118779,49.2993954 81.5375606,49.15584 C81.3632433,49.0122846 81.1164196,48.940508 80.7970821,48.940508 C80.5363386,48.940508 80.318079,49.0020308 80.1422969,49.1250783 C79.9665148,49.2481258 79.8581174,49.4136515 79.8171016,49.6216604 L78.9250118,49.6216604 C78.9396603,49.1968535 79.1256936,48.846027 79.4831172,48.5691701 C79.8405409,48.2923133 80.2873138,48.1538869 80.8234493,48.1538869 C81.4035303,48.1538869 81.8678811,48.2959753 82.2165157,48.5801564 C82.5651502,48.8643376 82.7394649,49.2422635 82.7394649,49.7139455 L82.7394649,52.9878713 L81.8297969,52.9878713 L81.8297969,52.1924611 L81.8078243,52.1924611 C81.6759877,52.4532046 81.4723764,52.6590131 81.1969844,52.8098928 C80.9215924,52.9607724 80.6227673,53.0362111 80.3005,53.0362111 Z M84.1831172,52.9878713 L85.132336,52.9878713 L85.132336,48.9668752 L86.0420039,48.9668752 L86.0420039,48.2154104 L85.1235469,48.2154104 L85.1235469,47.8067189 C85.1264766,47.6016398 85.1718863,47.4536921 85.2597774,47.3628713 C85.3476685,47.2720505 85.488292,47.2266408 85.6816524,47.2266408 C85.7461058,47.2266408 85.8098259,47.2295705 85.8728145,47.2354299 C85.9358031,47.2412893 85.9907342,47.2500783 86.0376094,47.2617971 L86.0376094,46.5366994 C85.8764758,46.5074024 85.7153446,46.4927541 85.554211,46.4927541 C85.0708101,46.4927541 84.7214484,46.5952921 84.5061153,46.8003713 C84.2907822,47.0054504 84.1831172,47.3306425 84.1831172,47.7759572 L84.1831172,48.2154104 L83.5239375,48.2154104 L83.5239375,48.9668752 L84.1831172,48.9668752 L84.1831172,52.9878713 Z M88.8259883,48.9317189 C88.4832132,48.9317189 88.1983039,49.0452432 87.971252,49.2722951 C87.7442001,49.499347 87.6174924,49.7974398 87.591125,50.1665822 L90.0125118,50.1665822 C90.0037227,49.7945101 89.8909308,49.4956849 89.6741329,49.2700979 C89.4573349,49.0445108 89.1746229,48.9317189 88.8259883,48.9317189 Z M90.0081172,51.5904104 L90.9177852,51.5904104 C90.8504021,52.0210766 90.6262832,52.3711707 90.2454219,52.6407033 C89.8645606,52.9102359 89.4060691,53.0450002 88.8699336,53.0450002 C88.1785239,53.0450002 87.6314103,52.8274731 87.2285762,52.3924123 C86.8257422,51.9573515 86.6243282,51.366293 86.6243282,50.6192189 C86.6243282,49.8721449 86.8250098,49.2744946 87.226379,48.8262502 C87.6277481,48.3780058 88.1624108,48.1538869 88.8303829,48.1538869 C89.4866361,48.1538869 90.0066505,48.3655547 90.3904415,48.7888967 C90.7742324,49.2122386 90.966125,49.7857192 90.966125,50.5093557 L90.966125,50.84334 L87.5867305,50.84334 L87.5867305,50.9004689 C87.5867305,51.313557 87.7061141,51.6453407 87.9448848,51.8958303 C88.1836555,52.1463198 88.4978614,52.2715627 88.8875118,52.2715627 C89.1658335,52.2715627 89.4060654,52.2107723 89.6082149,52.0891897 C89.8103643,51.967607 89.9436638,51.8013489 90.0081172,51.5904104 Z M94.391711,48.1670705 C95.001089,48.1670705 95.4896095,48.3875273 95.8572872,48.8284475 C96.2249648,49.2693676 96.4088008,49.8604262 96.4088008,50.6016408 C96.4088008,51.3399258 96.2264296,51.9302519 95.8616817,52.3726369 C95.4969338,52.8150219 95.0142726,53.0362111 94.4136836,53.0362111 C94.0709085,53.0362111 93.7691537,52.9629697 93.5084102,52.8164846 C93.2476667,52.6699995 93.0455203,52.4663882 92.9019649,52.2056447 L92.8843868,52.2056447 L92.8843868,54.5699025 L91.9307735,54.5699025 L91.9307735,48.2154104 L92.8492305,48.2154104 L92.8492305,49.006426 L92.8712032,49.006426 C93.0059695,48.7486122 93.2103131,48.5442685 93.4842403,48.3933889 C93.7581674,48.2425092 94.0606546,48.1670705 94.391711,48.1670705 Z M94.1500118,52.2276174 C94.5396622,52.2276174 94.8509383,52.0796696 95.0838497,51.7837697 C95.316761,51.4878698 95.4332149,51.0938308 95.4332149,50.6016408 C95.4332149,50.1094509 95.3160286,49.7154118 95.0816524,49.4195119 C94.8472762,49.123612 94.5367325,48.9756643 94.1500118,48.9756643 C93.7720802,48.9756643 93.4659309,49.1250768 93.2315547,49.4239064 C92.9971786,49.7227361 92.8785274,50.1153103 92.8755977,50.6016408 C92.8785274,51.0879714 92.9971786,51.4805456 93.2315547,51.7793752 C93.4659309,52.0782048 93.7720802,52.2276174 94.1500118,52.2276174 Z M99.4125118,53.0450002 C98.7211021,53.0450002 98.1717912,52.8252758 97.7645626,52.3858205 C97.357334,51.9463652 97.1537227,51.3516446 97.1537227,50.6016408 C97.1537227,49.8516371 97.3580664,49.256184 97.7667598,48.8152639 C98.1754533,48.3743437 98.7240318,48.1538869 99.4125118,48.1538869 C100.100992,48.1538869 100.648838,48.3743437 101.056066,48.8152639 C101.463295,49.256184 101.666906,49.8516371 101.666906,50.6016408 C101.666906,51.3516446 101.464027,51.9463652 101.058264,52.3858205 C100.6525,52.8252758 100.103921,53.0450002 99.4125118,53.0450002 Z M99.4125118,52.2539846 C99.8168107,52.2539846 100.132481,52.1082341 100.359533,51.8167287 C100.586585,51.5252233 100.700109,51.1201981 100.700109,50.6016408 C100.700109,50.0801538 100.586585,49.6743962 100.359533,49.3843557 C100.132481,49.0943152 99.8168107,48.9492971 99.4125118,48.9492971 C99.0082129,48.9492971 98.6918098,49.0950476 98.463293,49.3865529 C98.2347763,49.6780583 98.1205196,50.0830835 98.1205196,50.6016408 C98.1205196,51.1201981 98.2347763,51.5252233 98.463293,51.8167287 C98.6918098,52.1082341 99.0082129,52.2539846 99.4125118,52.2539846 Z M104.428918,53.0362111 C103.831259,53.0362111 103.3464,52.8142895 102.974328,52.3704397 C102.602256,51.9265898 102.416223,51.3355312 102.416223,50.5972463 C102.416223,49.8618911 102.602256,49.2730298 102.974328,48.8306447 C103.3464,48.3882597 103.828329,48.1670705 104.420129,48.1670705 C104.762904,48.1670705 105.065391,48.240312 105.3276,48.3867971 C105.589808,48.5332822 105.788292,48.7398231 105.923059,49.006426 L105.945031,49.006426 L105.945031,46.3609182 L106.89425,46.3609182 L106.89425,52.9878713 L105.971398,52.9878713 L105.971398,52.1792775 L105.95382,52.1792775 C105.813195,52.4488101 105.611048,52.6590131 105.347375,52.8098928 C105.083702,52.9607724 104.777553,53.0362111 104.428918,53.0362111 Z M104.670617,48.9756643 C104.283897,48.9756643 103.974085,49.1228796 103.741174,49.4173147 C103.508263,49.7117497 103.391809,50.1065212 103.391809,50.6016408 C103.391809,51.0967605 103.508263,51.4915319 103.741174,51.785967 C103.974085,52.0804021 104.283897,52.2276174 104.670617,52.2276174 C105.054408,52.2276174 105.363487,52.0782048 105.597863,51.7793752 C105.83224,51.4805456 105.949426,51.0879714 105.949426,50.6016408 C105.949426,50.1153103 105.831507,49.7227361 105.595666,49.4239064 C105.359825,49.1250768 105.051479,48.9756643 104.670617,48.9756643 Z" id="Family-Room-Safepod" fill="#9291AC" mask="url(#mask-4)"></path>
                <path d="M19.081433,63.9878713 L19.081433,59.4795705 L20.7357298,59.4795705 L20.7357298,59.0557424 L16.9622923,59.0557424 L16.9622923,59.4795705 L18.6165892,59.4795705 L18.6165892,63.9878713 L19.081433,63.9878713 Z M20.8468518,63.9878713 L21.2980237,63.9878713 L21.2980237,61.7046682 C21.2980237,61.4084427 21.3754969,61.1669087 21.5304456,60.9800588 C21.6853943,60.7932089 21.8938883,60.6997854 22.1559338,60.6997854 C22.2334082,60.6997854 22.3034758,60.7049123 22.3661389,60.7151662 C22.428802,60.7254202 22.4749441,60.7373829 22.5045667,60.7510549 L22.5045667,60.303301 C22.4749441,60.2941864 22.4344986,60.2856415 22.3832288,60.2776662 C22.331959,60.2696909 22.2767024,60.2657033 22.2174573,60.2657033 C21.9895916,60.2657033 21.7924907,60.3266565 21.6261487,60.4485647 C21.4598067,60.5704728 21.3458756,60.7407999 21.2843518,60.959551 L21.2706799,60.959551 L21.2706799,60.3067189 L20.8468518,60.3067189 L20.8468518,63.9878713 Z M23.2035792,63.9878713 L23.6547511,63.9878713 L23.6547511,60.3067189 L23.2035792,60.3067189 L23.2035792,63.9878713 Z M23.4291652,59.5786916 C23.5134755,59.5786916 23.5852521,59.5484998 23.6444972,59.4881154 C23.7037423,59.427731 23.7333644,59.356524 23.7333644,59.2744924 C23.7333644,59.1879034 23.7037423,59.1149875 23.6444972,59.0557424 C23.5852521,58.9964973 23.5134755,58.9668752 23.4291652,58.9668752 C23.3448549,58.9668752 23.2725086,58.9964973 23.2121242,59.0557424 C23.1517398,59.1149875 23.121548,59.1879034 23.121548,59.2744924 C23.121548,59.356524 23.1517398,59.427731 23.2121242,59.4881154 C23.2725086,59.5484998 23.3448549,59.5786916 23.4291652,59.5786916 Z M26.1071817,63.5982229 C26.4626522,63.5982229 26.750898,63.4632144 26.9719278,63.1931936 C27.1929575,62.9231727 27.3034707,62.5716951 27.3034707,62.1387502 C27.3034707,61.7035267 27.1929575,61.3497704 26.9719278,61.0774709 C26.750898,60.8051714 26.4626522,60.6690236 26.1071817,60.6690236 C25.7562685,60.6690236 25.4731496,60.8034624 25.2578164,61.0723439 C25.0424833,61.3412255 24.9348184,61.6966907 24.9348184,62.1387502 C24.9348184,62.5762524 25.0424833,62.9288693 25.2578164,63.1966115 C25.4731496,63.4643538 25.7562685,63.5982229 26.1071817,63.5982229 Z M26.1516153,65.3516408 C25.7551289,65.3516408 25.4184624,65.25366 25.1416055,65.0576955 C24.8647487,64.861731 24.7001181,64.6190576 24.647709,64.3296682 L25.1159707,64.3296682 C25.1774945,64.5142394 25.3016794,64.6646285 25.4885293,64.78084 C25.6753792,64.8970516 25.9032415,64.9551564 26.1721231,64.9551564 C26.5207576,64.9551564 26.796471,64.8623026 26.9992715,64.676592 C27.202072,64.4908814 27.3034707,64.2464991 27.3034707,63.9434377 L27.3034707,63.2051564 L27.2932168,63.2051564 C27.1906773,63.4444155 27.0277557,63.6375288 26.8044473,63.7845022 C26.5811389,63.9314755 26.3225152,64.0049611 26.0285684,64.0049611 C25.5637223,64.0049611 25.1883192,63.8329251 24.9023477,63.4888479 C24.6163762,63.1447706 24.4733926,62.6947426 24.4733926,62.1387502 C24.4733926,61.5759219 24.6169459,61.1230455 24.9040567,60.7801076 C25.1911675,60.4371697 25.5694189,60.2657033 26.0388223,60.2657033 C26.3327691,60.2657033 26.5925321,60.3391889 26.8181192,60.4861623 C27.0437062,60.6331357 27.2100457,60.8273883 27.3171426,61.068926 L27.3239786,61.068926 L27.3239786,60.3067189 L27.7546426,60.3067189 L27.7546426,63.9263479 C27.7546426,64.3547354 27.6099501,64.6993771 27.3205606,64.9602834 C27.0311711,65.2211897 26.6415266,65.3516408 26.1516153,65.3516408 Z M30.1728935,63.5982229 C30.528364,63.5982229 30.8166098,63.4632144 31.0376396,63.1931936 C31.2586693,62.9231727 31.3691826,62.5716951 31.3691826,62.1387502 C31.3691826,61.7035267 31.2586693,61.3497704 31.0376396,61.0774709 C30.8166098,60.8051714 30.528364,60.6690236 30.1728935,60.6690236 C29.8219803,60.6690236 29.5388614,60.8034624 29.3235283,61.0723439 C29.1081952,61.3412255 29.0005302,61.6966907 29.0005302,62.1387502 C29.0005302,62.5762524 29.1081952,62.9288693 29.3235283,63.1966115 C29.5388614,63.4643538 29.8219803,63.5982229 30.1728935,63.5982229 Z M30.2173271,65.3516408 C29.8208407,65.3516408 29.4841742,65.25366 29.2073173,65.0576955 C28.9304605,64.861731 28.76583,64.6190576 28.7134208,64.3296682 L29.1816826,64.3296682 C29.2432063,64.5142394 29.3673913,64.6646285 29.5542412,64.78084 C29.741091,64.8970516 29.9689533,64.9551564 30.2378349,64.9551564 C30.5864695,64.9551564 30.8621828,64.8623026 31.0649833,64.676592 C31.2677838,64.4908814 31.3691826,64.2464991 31.3691826,63.9434377 L31.3691826,63.2051564 L31.3589287,63.2051564 C31.2563891,63.4444155 31.0934675,63.6375288 30.8701591,63.7845022 C30.6468507,63.9314755 30.388227,64.0049611 30.0942802,64.0049611 C29.6294341,64.0049611 29.254031,63.8329251 28.9680595,63.4888479 C28.682088,63.1447706 28.5391044,62.6947426 28.5391044,62.1387502 C28.5391044,61.5759219 28.6826577,61.1230455 28.9697685,60.7801076 C29.2568793,60.4371697 29.6351307,60.2657033 30.1045341,60.2657033 C30.3984809,60.2657033 30.6582439,60.3391889 30.883831,60.4861623 C31.1094181,60.6331357 31.2757575,60.8273883 31.3828544,61.068926 L31.3896904,61.068926 L31.3896904,60.3067189 L31.8203544,60.3067189 L31.8203544,63.9263479 C31.8203544,64.3547354 31.6756619,64.6993771 31.3862724,64.9602834 C31.0968829,65.2211897 30.7072384,65.3516408 30.2173271,65.3516408 Z M34.2386053,60.6656057 C33.9082,60.6656057 33.6364742,60.7778279 33.4234198,61.0022756 C33.2103653,61.2267233 33.0935859,61.5223747 33.073078,61.8892385 L35.363117,61.8892385 C35.3585597,61.5246533 35.2531734,61.2295716 35.0469549,61.0039846 C34.8407364,60.7783975 34.5712893,60.6656057 34.2386053,60.6656057 Z M35.3391912,62.9453908 L35.7869451,62.9453908 C35.734536,63.2598455 35.5693359,63.5190389 35.2913397,63.7229787 C35.0133435,63.9269185 34.6738287,64.0288869 34.272785,64.0288869 C33.7646444,64.0288869 33.3596192,63.8614081 33.0576971,63.5264455 C32.755775,63.1914829 32.6048162,62.734619 32.6048162,62.15584 C32.6048162,61.5838971 32.7546357,61.1258938 33.0542791,60.7818166 C33.3539226,60.4377394 33.7509726,60.2657033 34.2454412,60.2657033 C34.7307952,60.2657033 35.1170218,60.4274856 35.4041326,60.7510549 C35.6912435,61.0746242 35.8347967,61.5109805 35.8347967,62.0601369 L35.8347967,62.2583791 L33.073078,62.2583791 L33.073078,62.2823049 C33.073078,62.6992992 33.1835912,63.0279905 33.4046209,63.2683889 C33.6256507,63.5087872 33.9184537,63.6289846 34.2830389,63.6289846 C34.5587564,63.6289846 34.7900367,63.5657528 34.9768866,63.4392873 C35.1637364,63.3128218 35.2845035,63.1481913 35.3391912,62.9453908 Z M36.6192585,63.9878713 L37.0704304,63.9878713 L37.0704304,61.7046682 C37.0704304,61.4084427 37.1479036,61.1669087 37.3028523,60.9800588 C37.457801,60.7932089 37.666295,60.6997854 37.9283406,60.6997854 C38.0058149,60.6997854 38.0758826,60.7049123 38.1385456,60.7151662 C38.2012087,60.7254202 38.2473508,60.7373829 38.2769734,60.7510549 L38.2769734,60.303301 C38.2473508,60.2941864 38.2069053,60.2856415 38.1556355,60.2776662 C38.1043657,60.2696909 38.0491091,60.2657033 37.989864,60.2657033 C37.7619983,60.2657033 37.5648974,60.3266565 37.3985554,60.4485647 C37.2322134,60.5704728 37.1182823,60.7407999 37.0567585,60.959551 L37.0430866,60.959551 L37.0430866,60.3067189 L36.6192585,60.3067189 L36.6192585,63.9878713 Z M40.179111,60.6656057 C39.8487057,60.6656057 39.5769799,60.7778279 39.3639254,61.0022756 C39.150871,61.2267233 39.0340915,61.5223747 39.0135836,61.8892385 L41.3036227,61.8892385 C41.2990654,61.5246533 41.193679,61.2295716 40.9874606,61.0039846 C40.7812421,60.7783975 40.5117949,60.6656057 40.179111,60.6656057 Z M41.2796969,62.9453908 L41.7274508,62.9453908 C41.6750417,63.2598455 41.5098415,63.5190389 41.2318453,63.7229787 C40.9538492,63.9269185 40.6143343,64.0288869 40.2132906,64.0288869 C39.7051501,64.0288869 39.3001248,63.8614081 38.9982028,63.5264455 C38.6962807,63.1914829 38.5453219,62.734619 38.5453219,62.15584 C38.5453219,61.5838971 38.6951414,61.1258938 38.9947848,60.7818166 C39.2944282,60.4377394 39.6914783,60.2657033 40.1859469,60.2657033 C40.6713009,60.2657033 41.0575275,60.4274856 41.3446383,60.7510549 C41.6317491,61.0746242 41.7753024,61.5109805 41.7753024,62.0601369 L41.7753024,62.2583791 L39.0135836,62.2583791 L39.0135836,62.2823049 C39.0135836,62.6992992 39.1240968,63.0279905 39.3451266,63.2683889 C39.5661563,63.5087872 39.8589594,63.6289846 40.2235446,63.6289846 C40.4992621,63.6289846 40.7305423,63.5657528 40.9173922,63.4392873 C41.1042421,63.3128218 41.2250091,63.1481913 41.2796969,62.9453908 Z M43.9508775,64.0288869 C43.4905887,64.0288869 43.1129069,63.8557116 42.8178208,63.5093557 C42.5227347,63.1629998 42.3751939,62.7084145 42.3751939,62.1455861 C42.3751939,61.5827578 42.5215954,61.1287422 42.8144028,60.7835256 C43.1072103,60.438309 43.4826134,60.2657033 43.9406236,60.2657033 C44.2391276,60.2657033 44.50003,60.3386193 44.7233384,60.4844533 C44.9466468,60.6302874 45.1072897,60.822831 45.205272,61.06209 L45.2155259,61.06209 L45.2155259,58.8404104 L45.6701157,58.8404104 L45.6701157,63.9878713 L45.2394517,63.9878713 L45.2394517,63.2051564 L45.2291978,63.2051564 C45.1243795,63.4558087 44.959749,63.6557579 44.7353013,63.80501 C44.5108535,63.954262 44.2493816,64.0288869 43.9508775,64.0288869 Z M44.0226548,60.6690236 C43.6694629,60.6690236 43.3834957,60.8040321 43.1647446,61.0740529 C42.9459936,61.3440738 42.8366196,61.701248 42.8366196,62.1455861 C42.8366196,62.5899243 42.9459936,62.9470985 43.1647446,63.2171193 C43.3834957,63.4871402 43.6694629,63.6221486 44.0226548,63.6221486 C44.3758467,63.6221486 44.6635228,63.4854313 44.8856919,63.2119924 C45.107861,62.9385535 45.2189439,62.5830883 45.2189439,62.1455861 C45.2189439,61.7080839 45.107861,61.3526188 44.8856919,61.0791799 C44.6635228,60.805741 44.3758467,60.6690236 44.0226548,60.6690236 Z M49.3342542,61.6397268 L49.9289808,61.6397268 C50.3254671,61.6397268 50.6376385,61.7297324 50.8655042,61.9097463 C51.0933699,62.0897602 51.2073011,62.3369908 51.2073011,62.6514455 C51.2073011,62.9431136 51.0910913,63.1835084 50.8586683,63.3726369 C50.6262452,63.5617655 50.3311635,63.6563283 49.9734144,63.6563283 C49.6179438,63.6563283 49.3262801,63.567462 49.0984144,63.3897268 C48.8705486,63.2119915 48.747503,62.9852685 48.7292737,62.709551 L48.2781019,62.709551 C48.2940525,63.1037587 48.456974,63.4284625 48.7668714,63.6836721 C49.0767688,63.9388817 49.4800851,64.0664846 49.9768323,64.0664846 C50.4553503,64.0664846 50.8592363,63.9326155 51.1885023,63.6648732 C51.5177682,63.397131 51.6823987,63.0547679 51.6823987,62.6377736 C51.6823987,62.2891391 51.5701766,62.0060202 51.3457288,61.7884084 C51.1212811,61.5707966 50.8199332,61.4505993 50.4416761,61.4278127 L50.4416761,61.4141408 C50.7584094,61.3571744 51.009058,61.2244446 51.1936292,61.0159475 C51.3782004,60.8074503 51.4704847,60.548257 51.4704847,60.2383596 C51.4704847,59.8737744 51.3257921,59.5724265 51.0364026,59.3343068 C50.7470132,59.0961872 50.3847121,58.9771291 49.9494886,58.9771291 C49.5051504,58.9771291 49.1400011,59.0990354 48.8540296,59.3428518 C48.5680581,59.5866681 48.4102635,59.9068146 48.3806409,60.303301 L48.8318128,60.303301 C48.856878,60.0298621 48.9696699,59.8088357 49.1701917,59.640215 C49.3707135,59.4715944 49.6236407,59.3872854 49.9289808,59.3872854 C50.2616647,59.3872854 50.5231367,59.4721641 50.7134046,59.641924 C50.9036725,59.811684 50.998805,60.0298621 50.998805,60.296465 C50.998805,60.5699039 50.8979759,60.7960572 50.6963148,60.9749318 C50.4946536,61.1538064 50.2320423,61.2432424 49.908473,61.2432424 L49.3342542,61.2432424 L49.3342542,61.6397268 Z M54.4817911,59.424883 L54.4817911,60.3067189 L53.9554239,60.3067189 L53.9554239,60.6861135 L54.4817911,60.6861135 L54.4817911,63.0821096 C54.4817911,63.4147935 54.5478712,63.65234 54.6800333,63.7947561 C54.8121954,63.9371721 55.0309432,64.0083791 55.3362833,64.0083791 C55.3841351,64.0083791 55.4467972,64.0061005 55.5242716,64.0015432 C55.6017459,63.9969859 55.6530149,63.9912893 55.6780802,63.9844533 L55.6780802,63.5982229 C55.6644082,63.6005015 55.625102,63.6033498 55.5601602,63.6067678 C55.4952185,63.6101858 55.4502157,63.6118947 55.4251505,63.6118947 C55.2542512,63.6118947 55.1294966,63.5686009 55.0508829,63.4820119 C54.9722692,63.3954229 54.932963,63.2564269 54.932963,63.0650197 L54.932963,60.6861135 L55.6609903,60.6861135 L55.6609903,60.3067189 L54.932963,60.3067189 L54.932963,59.424883 L54.4817911,59.424883 Z M56.5172295,63.9878713 L56.9684014,63.9878713 L56.9684014,60.3067189 L56.5172295,60.3067189 L56.5172295,63.9878713 Z M56.7428154,59.5786916 C56.8271257,59.5786916 56.8989024,59.5484998 56.9581475,59.4881154 C57.0173925,59.427731 57.0470146,59.356524 57.0470146,59.2744924 C57.0470146,59.1879034 57.0173925,59.1149875 56.9581475,59.0557424 C56.8989024,58.9964973 56.8271257,58.9668752 56.7428154,58.9668752 C56.6585051,58.9668752 56.5861588,58.9964973 56.5257744,59.0557424 C56.46539,59.1149875 56.4351982,59.1879034 56.4351982,59.2744924 C56.4351982,59.356524 56.46539,59.427731 56.5257744,59.4881154 C56.5861588,59.5484998 56.6585051,59.5786916 56.7428154,59.5786916 Z M57.9716132,63.9878713 L58.422785,63.9878713 L58.422785,61.7422658 C58.422785,61.4255325 58.5110817,61.1674784 58.6876776,60.9680959 C58.8642736,60.7687134 59.0892876,60.6690236 59.3627264,60.6690236 C59.6133787,60.6690236 59.8178852,60.7493451 59.9762518,60.9099904 C60.1346185,61.0706358 60.2138007,61.2831174 60.2138007,61.5474416 L60.2138007,63.9878713 L60.6649725,63.9878713 L60.6649725,61.6875783 C60.6649725,61.3890742 60.7515602,61.1446919 60.9247382,60.954424 C61.0979161,60.7641561 61.3223605,60.6690236 61.598078,60.6690236 C61.8669596,60.6690236 62.0771625,60.7510541 62.2286932,60.9151174 C62.380224,61.0791807 62.4559882,61.3047644 62.4559882,61.5918752 L62.4559882,63.9878713 L62.910578,63.9878713 L62.910578,61.4893361 C62.910578,61.1156364 62.8017738,60.818276 62.584162,60.5972463 C62.3665502,60.3762165 62.0788741,60.2657033 61.7211249,60.2657033 C61.4454074,60.2657033 61.204443,60.3380496 60.9982245,60.4827443 C60.792006,60.6274391 60.6444652,60.8125772 60.5555975,61.0381643 L60.5453436,61.0381643 C60.4769839,60.8057412 60.349381,60.6188941 60.1625311,60.4776174 C59.9756812,60.3363406 59.7489583,60.2657033 59.4823554,60.2657033 C59.2203098,60.2657033 58.9952957,60.3329227 58.8073065,60.4673635 C58.6193173,60.6018043 58.4865875,60.7772582 58.4091132,60.9937307 L58.3954413,60.9937307 L58.3954413,60.3067189 L57.9716132,60.3067189 L57.9716132,63.9878713 Z M65.3083211,60.6656057 C64.9779158,60.6656057 64.70619,60.7778279 64.4931355,61.0022756 C64.2800811,61.2267233 64.1633016,61.5223747 64.1427937,61.8892385 L66.4328328,61.8892385 C66.4282755,61.5246533 66.3228892,61.2295716 66.1166707,61.0039846 C65.9104522,60.7783975 65.641005,60.6656057 65.3083211,60.6656057 Z M66.408907,62.9453908 L66.8566609,62.9453908 C66.8042518,63.2598455 66.6390516,63.5190389 66.3610554,63.7229787 C66.0830593,63.9269185 65.7435444,64.0288869 65.3425008,64.0288869 C64.8343602,64.0288869 64.429335,63.8614081 64.1274129,63.5264455 C63.8254908,63.1914829 63.674532,62.734619 63.674532,62.15584 C63.674532,61.5838971 63.8243515,61.1258938 64.1239949,60.7818166 C64.4236383,60.4377394 64.8206884,60.2657033 65.315157,60.2657033 C65.800511,60.2657033 66.1867376,60.4274856 66.4738484,60.7510549 C66.7609592,61.0746242 66.9045125,61.5109805 66.9045125,62.0601369 L66.9045125,62.2583791 L64.1427937,62.2583791 L64.1427937,62.2823049 C64.1427937,62.6992992 64.2533069,63.0279905 64.4743367,63.2683889 C64.6953664,63.5087872 64.9881695,63.6289846 65.3527547,63.6289846 C65.6284722,63.6289846 65.8597524,63.5657528 66.0466023,63.4392873 C66.2334522,63.3128218 66.3542192,63.1481913 66.408907,62.9453908 Z M67.613779,61.2979299 C67.613779,61.7696119 67.9305076,62.0852012 68.5639743,62.2447072 L69.1860446,62.4019338 C69.4344182,62.4634575 69.6110115,62.5403611 69.7158298,62.6326467 C69.820648,62.7249323 69.8730563,62.8496869 69.8730563,63.0069143 C69.8730563,63.2028788 69.7864686,63.3589645 69.6132907,63.475176 C69.4401127,63.5913875 69.2156684,63.6494924 68.9399509,63.6494924 C68.6619547,63.6494924 68.436371,63.5856909 68.263193,63.4580861 C68.0900151,63.3304813 67.9886164,63.1618632 67.9589938,62.9522268 L67.504404,62.9522268 C67.5317479,63.2644028 67.6747315,63.5218872 67.9333591,63.7246877 C68.1919867,63.9274882 68.5183994,64.0288869 68.9126071,64.0288869 C69.3273227,64.0288869 69.6674072,63.9309061 69.9328708,63.7349416 C70.1983343,63.5389771 70.3310641,63.2860499 70.3310641,62.9761525 C70.3310641,62.714107 70.253591,62.5096005 70.0986423,62.3626272 C69.9436936,62.2156538 69.6816519,62.0954564 69.3125094,62.0020314 L68.7485446,61.8653127 C68.5138429,61.8083463 68.3406676,61.7331517 68.2290134,61.6397268 C68.1173591,61.5463018 68.0615329,61.4243955 68.0615329,61.2740041 C68.0615329,61.0871542 68.1435633,60.9361954 68.3076266,60.8211232 C68.47169,60.7060511 68.676766,60.6485158 68.922861,60.6485158 C69.1826279,60.6485158 69.3922613,60.7117476 69.5517673,60.8382131 C69.7112733,60.9646786 69.8024182,61.132727 69.8252048,61.3423635 L70.2592868,61.3423635 C70.2410575,61.0256301 70.1088974,60.7670064 69.8628024,60.5664846 C69.6167074,60.3659627 69.307954,60.2657033 68.9365329,60.2657033 C68.5559971,60.2657033 68.2404078,60.3614055 67.9897555,60.5528127 C67.7391032,60.7442199 67.613779,60.9925898 67.613779,61.2979299 Z" id="Triggered-3-times" fill="#9291AC" mask="url(#mask-4)"></path>
                <path d="M19.2503047,115.655552 L19.2503047,111.996373 L20.5657344,111.996373 L20.5657344,111.428013 L17.2756953,111.428013 L17.2756953,111.996373 L18.5940547,111.996373 L18.5940547,115.655552 L19.2503047,115.655552 Z M22.14199,115.693638 C21.6810502,115.693638 21.3148429,115.547155 21.0433572,115.254185 C20.7718714,114.961215 20.6361306,114.564735 20.6361306,114.064732 C20.6361306,113.56473 20.7723597,113.167761 21.044822,112.873814 C21.3172843,112.579867 21.6830033,112.432896 22.14199,112.432896 C22.6009766,112.432896 22.9662074,112.579867 23.2376931,112.873814 C23.5091788,113.167761 23.6449197,113.56473 23.6449197,114.064732 C23.6449197,114.564735 23.5096671,114.961215 23.2391579,115.254185 C22.9686488,115.547155 22.6029298,115.693638 22.14199,115.693638 Z M22.14199,115.166295 C22.4115226,115.166295 22.6219697,115.069128 22.7733376,114.874791 C22.9247056,114.680454 23.0003884,114.410437 23.0003884,114.064732 C23.0003884,113.717074 22.9247056,113.446569 22.7733376,113.253209 C22.6219697,113.059848 22.4115226,112.96317 22.14199,112.96317 C21.8724574,112.96317 21.661522,113.060337 21.5091775,113.254673 C21.356833,113.44901 21.2806618,113.719027 21.2806618,114.064732 C21.2806618,114.410437 21.356833,114.680454 21.5091775,114.874791 C21.661522,115.069128 21.8724574,115.166295 22.14199,115.166295 Z M25.6957846,115.687779 C25.2973451,115.687779 24.9741062,115.539831 24.7260581,115.243931 C24.4780099,114.948031 24.3539877,114.553992 24.3539877,114.061802 C24.3539877,113.571566 24.4780099,113.178991 24.7260581,112.884068 C24.9741062,112.589145 25.295392,112.441685 25.6899252,112.441685 C25.918442,112.441685 26.1201002,112.490513 26.2949057,112.58817 C26.4697113,112.685826 26.6020342,112.82352 26.6918784,113.001256 L26.7065268,113.001256 L26.7065268,111.237584 L27.3393393,111.237584 L27.3393393,115.655552 L26.7241049,115.655552 L26.7241049,115.11649 L26.7123862,115.11649 C26.6186357,115.296178 26.4838714,115.436314 26.3080893,115.5369 C26.1323072,115.637486 25.9282077,115.687779 25.6957846,115.687779 Z M25.8569174,112.980748 C25.5991036,112.980748 25.3925627,113.078891 25.2372885,113.275181 C25.0820143,113.471471 25.0043784,113.734652 25.0043784,114.064732 C25.0043784,114.394812 25.0820143,114.657993 25.2372885,114.854283 C25.3925627,115.050573 25.5991036,115.148716 25.8569174,115.148716 C26.1127781,115.148716 26.3188307,115.049108 26.4750815,114.849888 C26.6313323,114.650669 26.7094565,114.388952 26.7094565,114.064732 C26.7094565,113.740512 26.630844,113.478796 26.4736166,113.279576 C26.3163893,113.080356 26.110825,112.980748 25.8569174,112.980748 Z M29.4605168,115.180943 C29.6968461,115.180943 29.8941097,115.113073 30.0523136,114.97733 C30.2105176,114.841587 30.2896183,114.669225 30.2896183,114.46024 L30.2896183,114.214146 L29.5161808,114.263951 C29.0767255,114.291295 28.8570011,114.447543 28.8570011,114.732701 C28.8570011,114.867467 28.9116881,114.975864 29.0210636,115.057896 C29.1304392,115.139928 29.2769221,115.180943 29.4605168,115.180943 Z M29.2905949,115.687779 C28.9741871,115.687779 28.7158889,115.601354 28.5156926,115.428502 C28.3154962,115.255649 28.2153996,115.027624 28.2153996,114.74442 C28.2153996,114.176057 28.620669,113.86649 29.4312199,113.815709 L30.2896183,113.765904 L30.2896183,113.51981 C30.2896183,113.336216 30.2315134,113.196568 30.1153019,113.100865 C29.9990904,113.005161 29.8345413,112.95731 29.6216496,112.95731 C29.4478206,112.95731 29.3023142,112.998325 29.1851261,113.080357 C29.0679381,113.162389 28.9956732,113.272739 28.9683293,113.411412 L28.3736027,113.411412 C28.3833684,113.128207 28.5073906,112.894323 28.745673,112.709752 C28.9839555,112.52518 29.281804,112.432896 29.6392277,112.432896 C30.0259484,112.432896 30.3355156,112.527622 30.5679386,112.717076 C30.8003617,112.90653 30.9165715,113.15848 30.9165715,113.472935 L30.9165715,115.655552 L30.3101261,115.655552 L30.3101261,115.125279 L30.2954777,115.125279 C30.2075866,115.299108 30.0718458,115.436314 29.8882511,115.5369 C29.7046565,115.637486 29.5054397,115.687779 29.2905949,115.687779 Z M32.2145067,116.812779 C32.536774,116.812779 32.7872597,116.740026 32.9659716,116.594517 C33.1446834,116.449009 33.3014201,116.184851 33.4361864,115.802037 L34.6285692,112.473912 L33.9606005,112.473912 L33.1432177,115.075474 L33.1285692,115.075474 L32.3111864,112.473912 L31.6285692,112.473912 L32.7828661,115.664341 L32.7330614,115.828404 C32.6803268,115.998327 32.6090384,116.118443 32.5191942,116.188756 C32.42935,116.259068 32.3082575,116.294224 32.155913,116.294224 C32.1285691,116.294224 32.0939015,116.293248 32.0519091,116.291295 C32.0099167,116.289341 31.9772022,116.285435 31.9537645,116.279576 L31.9537645,116.795201 C31.9713428,116.799107 31.9972214,116.802037 32.0314013,116.80399 C32.0655811,116.805943 32.1002487,116.807896 32.1354052,116.809849 C32.1705616,116.811802 32.1969285,116.812779 32.2145067,116.812779 Z M35.996817,112.974888 L36.4157623,111.428013 L35.800528,111.428013 L35.4548248,112.974888 L35.996817,112.974888 Z M36.8552992,113.379185 C36.8552992,113.820594 37.1414291,114.111606 37.7136976,114.252232 L38.282057,114.392857 C38.4500266,114.433873 38.5686777,114.484654 38.638014,114.545201 C38.7073503,114.605748 38.7420179,114.685825 38.7420179,114.785435 C38.7420179,114.916295 38.683913,115.019322 38.5677015,115.094517 C38.45149,115.169713 38.2947533,115.20731 38.0974867,115.20731 C37.8963138,115.20731 37.7356709,115.166783 37.6155531,115.085728 C37.4954353,115.004673 37.4226821,114.887975 37.3972914,114.735631 L36.7703382,114.735631 C36.7937758,115.022741 36.9226808,115.254184 37.157057,115.429966 C37.3914331,115.605749 37.6941645,115.693638 38.0652601,115.693638 C38.4500277,115.693638 38.7644776,115.604772 39.0086195,115.427037 C39.2527613,115.249301 39.3748304,115.017858 39.3748304,114.732701 C39.3748304,114.498325 39.3084248,114.316198 39.1756117,114.186314 C39.0427985,114.056431 38.8162383,113.953404 38.4959242,113.877232 L37.9685804,113.751256 C37.8006108,113.71024 37.6761004,113.656529 37.5950453,113.590123 C37.5139902,113.523716 37.4734632,113.441686 37.4734632,113.344029 C37.4734632,113.217075 37.5281502,113.115514 37.6375257,113.039341 C37.7469013,112.963169 37.8924076,112.925084 38.0740492,112.925084 C38.2556907,112.925084 38.4036384,112.966099 38.5178968,113.048131 C38.6321552,113.130162 38.6951429,113.241489 38.7068617,113.382115 L39.3045179,113.382115 C39.2967054,113.10477 39.179519,112.877721 38.9529554,112.700963 C38.7263918,112.524204 38.4383087,112.435826 38.0886976,112.435826 C37.7234614,112.435826 37.4265894,112.522739 37.1980726,112.696568 C36.9695558,112.870397 36.8552992,113.097934 36.8552992,113.379185 Z M42.0234353,111.428013 L43.5380838,111.428013 C44.1669932,111.428013 44.6577109,111.612094 45.0102518,111.980259 C45.3627926,112.348425 45.5390603,112.866487 45.5390603,113.534459 C45.5390603,114.202431 45.3632809,114.722933 45.0117166,115.095982 C44.6601523,115.469031 44.1689463,115.655552 43.5380838,115.655552 L42.0234353,115.655552 L42.0234353,111.428013 Z M42.6796853,111.996373 L42.6796853,115.087193 L43.4765603,115.087193 C43.9257813,115.087193 44.2705045,114.953894 44.51074,114.687291 C44.7509756,114.420688 44.8710916,114.038367 44.8710916,113.540318 C44.8710916,113.042269 44.7504873,112.660437 44.5092752,112.39481 C44.268063,112.129184 43.9238282,111.996373 43.4765603,111.996373 L42.6796853,111.996373 Z M47.5401206,115.180943 C47.7764499,115.180943 47.9737136,115.113073 48.1319175,114.97733 C48.2901214,114.841587 48.3692222,114.669225 48.3692222,114.46024 L48.3692222,114.214146 L47.5957847,114.263951 C47.1563294,114.291295 46.936605,114.447543 46.936605,114.732701 C46.936605,114.867467 46.9912919,114.975864 47.1006675,115.057896 C47.210043,115.139928 47.356526,115.180943 47.5401206,115.180943 Z M47.3701987,115.687779 C47.0537909,115.687779 46.7954927,115.601354 46.5952964,115.428502 C46.3951001,115.255649 46.2950034,115.027624 46.2950034,114.74442 C46.2950034,114.176057 46.7002728,113.86649 47.5108237,113.815709 L48.3692222,113.765904 L48.3692222,113.51981 C48.3692222,113.336216 48.3111173,113.196568 48.1949058,113.100865 C48.0786943,113.005161 47.9141451,112.95731 47.7012534,112.95731 C47.5274244,112.95731 47.3819181,112.998325 47.26473,113.080357 C47.1475419,113.162389 47.075277,113.272739 47.0479331,113.411412 L46.4532066,113.411412 C46.4629722,113.128207 46.5869944,112.894323 46.8252769,112.709752 C47.0635593,112.52518 47.3614079,112.432896 47.7188316,112.432896 C48.1055522,112.432896 48.4151195,112.527622 48.6475425,112.717076 C48.8799655,112.90653 48.9961753,113.15848 48.9961753,113.472935 L48.9961753,115.655552 L48.38973,115.655552 L48.38973,115.125279 L48.3750816,115.125279 C48.2871905,115.299108 48.1514497,115.436314 47.967855,115.5369 C47.7842603,115.637486 47.5850436,115.687779 47.3701987,115.687779 Z M50.168134,111.759068 L50.168134,112.473912 L49.7286809,112.473912 L49.7286809,112.974888 L50.168134,112.974888 L50.168134,114.817662 C50.168134,115.124304 50.2360044,115.344028 50.3717473,115.476841 C50.5074902,115.609655 50.7335621,115.67606 51.04997,115.67606 C51.1202828,115.67606 51.1886415,115.673131 51.2550481,115.667271 C51.3214547,115.661412 51.3722354,115.653599 51.4073918,115.643834 L51.4073918,115.142857 C51.3878605,115.14481 51.355146,115.14774 51.3092473,115.151646 C51.2633486,115.155552 51.2237983,115.157506 51.190595,115.157506 C51.0577818,115.157506 50.9596382,115.124303 50.8961614,115.057896 C50.8326845,114.99149 50.8009465,114.889928 50.8009465,114.753209 L50.8009465,112.974888 L51.4103215,112.974888 L51.4103215,112.473912 L50.8009465,112.473912 L50.8009465,111.759068 L50.168134,111.759068 Z M53.5402881,112.951451 C53.3117713,112.951451 53.1218318,113.027134 52.9704638,113.178502 C52.8190959,113.32987 52.7346241,113.528598 52.7170459,113.774693 L54.3313037,113.774693 C54.3254443,113.526645 54.2502497,113.327428 54.1057177,113.177037 C53.9611858,113.026645 53.7727111,112.951451 53.5402881,112.951451 Z M54.328374,114.723912 L54.9348193,114.723912 C54.8898972,115.011023 54.7404846,115.244419 54.4865771,115.424107 C54.2326696,115.603795 53.9270086,115.693638 53.5695849,115.693638 C53.1086451,115.693638 52.7439027,115.54862 52.4753466,115.25858 C52.2067906,114.968539 52.0725146,114.5745 52.0725146,114.076451 C52.0725146,113.578401 52.2063023,113.179968 52.4738818,112.881138 C52.7414613,112.582309 53.097903,112.432896 53.5432177,112.432896 C53.9807199,112.432896 54.3273961,112.574008 54.5832568,112.856236 C54.8391175,113.138464 54.9670459,113.520784 54.9670459,114.003209 L54.9670459,114.225865 L52.7141162,114.225865 L52.7141162,114.263951 C52.7141162,114.539343 52.7937052,114.760532 52.9528857,114.927525 C53.1120662,115.094518 53.3215368,115.178013 53.5813037,115.178013 C53.7668515,115.178013 53.9270061,115.137486 54.0617724,115.056431 C54.1965387,114.975376 54.285405,114.864537 54.328374,114.723912 Z" id="Todays-Date" fill="#B4B4C9" mask="url(#mask-4)"></path>
                <g id="Group-1936" mask="url(#mask-4)">
                    <g transform="translate(119.164118, 110.081694)">
                        <mask id="mask-8" fill="white">
                            <use xlink:href="#path-7"></use>
                        </mask>
                        <g id="Clip-1935" stroke="none" fill="none"></g>
                        <polygon id="Fill-1934" stroke="none" fill="#B4B4C9" fill-rule="evenodd" mask="url(#mask-8)" points="-2.2390175 9.17629157 8.81019701 9.17629157 8.81019701 -2.55372875 -2.2390175 -2.55372875"></polygon>
                    </g>
                </g>
                <polygon id="Clip-1047" fill="#9291AC" mask="url(#mask-4)" points="22.4209283 22.7301049 21.7870524 22.096229 19.2740266 24.6092548 16.7610009 22.096229 16.127125 22.7301049 18.6401507 25.2431307 16.127125 27.7561564 16.7610009 28.3900323 19.2740266 25.8770066 21.7870524 28.3900323 22.4209283 27.7561564 19.9079025 25.2431307"></polygon>
            </g>
            <g id="Group-3" mask="url(#mask-2)">
                <g transform="translate(20.500000, 252.902453)">
                    <rect id="Rectangle-5" fill="url(#linearGradient-9)" x="0.0667932695" y="0.570111743" width="104.618321" height="18.1884643" rx="9.09423216"></rect>
                    <path d="M39.8000355,5.94351871 L41.9457874,5.94351871 C42.8367424,5.94351871 43.5319259,6.20429898 44.0313587,6.72586734 C44.5307915,7.24743571 44.7805042,7.98135578 44.7805042,8.92764957 C44.7805042,9.87394336 44.5314833,10.6113221 44.0334339,11.1398078 C43.5353845,11.6682935 42.8395093,11.9325324 41.9457874,11.9325324 L39.8000355,11.9325324 L39.8000355,5.94351871 Z M40.729723,6.74869449 L40.729723,11.1273566 L41.8586292,11.1273566 C42.4950256,11.1273566 42.9833834,10.9385157 43.3237171,10.5608283 C43.6640508,10.1831408 43.8342151,9.64152028 43.8342151,8.93595035 C43.8342151,8.23038042 43.6633591,7.68945158 43.3216419,7.31314762 C42.9799247,6.93684365 42.4922587,6.74869449 41.8586292,6.74869449 L40.729723,6.74869449 Z M45.6064319,11.9325324 L46.5070667,11.9325324 L46.5070667,7.42520816 L45.6064319,7.42520816 L45.6064319,11.9325324 Z M46.0588245,6.78189762 C46.2054724,6.78189762 46.3299829,6.7314017 46.4323597,6.63040836 C46.5347365,6.52941501 46.5859241,6.40697972 46.5859241,6.26309879 C46.5859241,6.11645092 46.5347365,5.9933239 46.4323597,5.89371402 C46.3299829,5.79410415 46.2054724,5.74429996 46.0588245,5.74429996 C45.9121767,5.74429996 45.7869745,5.79410415 45.6832142,5.89371402 C45.5794539,5.9933239 45.5275745,6.11645092 45.5275745,6.26309879 C45.5275745,6.40697972 45.5794539,6.52941501 45.6832142,6.63040836 C45.7869745,6.7314017 45.9121767,6.78189762 46.0588245,6.78189762 Z M47.3869495,8.70767887 C47.3869495,9.33300751 47.7923003,9.74527553 48.603014,9.94449527 L49.4081898,10.143714 C49.6461467,10.2018198 49.8142358,10.2737592 49.9124622,10.3595343 C50.0106886,10.4453095 50.0598011,10.5587524 50.0598011,10.6998664 C50.0598011,10.8852514 49.9774858,11.0312054 49.8128528,11.1377326 C49.6482199,11.2442598 49.4261762,11.2975226 49.1467151,11.2975226 C48.8617202,11.2975226 48.6341428,11.2401095 48.4639759,11.1252814 C48.293809,11.0104534 48.190742,10.8451311 48.1547718,10.6293097 L47.2665882,10.6293097 C47.2997915,11.03605 47.4824068,11.3639276 47.8144398,11.6129523 C48.1464727,11.861977 48.5753421,11.9864875 49.1010609,11.9864875 C49.6461482,11.9864875 50.091619,11.8605935 50.4374866,11.6088019 C50.7833542,11.3570103 50.9562855,11.0291327 50.9562855,10.6251593 C50.9562855,10.2931264 50.8622109,10.0351131 50.6740589,9.85111148 C50.4859069,9.66710991 50.1649466,9.52115597 49.7111683,9.41324527 L48.964098,9.23477848 C48.726141,9.17667272 48.5497512,9.10058298 48.4349232,9.00650699 C48.3200951,8.912431 48.2626819,8.79622122 48.2626819,8.65787418 C48.2626819,8.47802302 48.3401551,8.33414425 48.4951038,8.22623355 C48.6500525,8.11832286 48.8561865,8.06436832 49.113512,8.06436832 C49.3708375,8.06436832 49.5804302,8.12247321 49.7422962,8.23868473 C49.9041622,8.35489624 49.9933948,8.51260951 50.0099964,8.71182926 L50.8566761,8.71182926 C50.8456083,8.31892365 50.6795944,7.99727159 50.3586292,7.74686344 C50.0376641,7.49645528 49.6295464,7.37125308 49.134264,7.37125308 C48.616846,7.37125308 48.1962773,7.49438011 47.8725452,7.74063785 C47.5488131,7.98689559 47.3869495,8.30923937 47.3869495,8.70767887 Z M53.2514515,11.2601691 C53.5862513,11.2601691 53.8657082,11.1640193 54.0898304,10.971717 C54.3139526,10.7794146 54.426012,10.5352357 54.426012,10.239173 L54.426012,9.89054019 L53.3303089,9.96109683 C52.7077472,9.99983401 52.396471,10.221186 52.396471,10.6251593 C52.396471,10.8160783 52.4739442,10.9696412 52.6288929,11.0858527 C52.7838416,11.2020642 52.991359,11.2601691 53.2514515,11.2601691 Z M53.0107288,11.9781867 C52.5624844,11.9781867 52.1965619,11.8557514 51.9129505,11.6108771 C51.6293391,11.3660028 51.4875355,11.0429673 51.4875355,10.6417609 C51.4875355,9.83658109 52.0616671,9.39802753 53.2099476,9.32608707 L54.426012,9.25553043 L54.426012,8.90689762 C54.426012,8.64680517 54.3436968,8.44897186 54.1790638,8.31339176 C54.0144308,8.17781165 53.7813195,8.11002262 53.479723,8.11002262 C53.2334652,8.11002262 53.0273312,8.1681275 52.8613148,8.28433902 C52.6952983,8.40055054 52.592923,8.55688036 52.5541859,8.75333316 L51.7116566,8.75333316 C51.7254913,8.35212673 51.9011894,8.02079053 52.2387562,7.75931461 C52.576323,7.49783869 52.9982751,7.36710269 53.5046253,7.36710269 C54.0524796,7.36710269 54.4910332,7.50129732 54.8202991,7.76969058 C55.1495651,8.03808385 55.3141956,8.39501388 55.3141956,8.84049137 L55.3141956,11.9325324 L54.4550648,11.9325324 L54.4550648,11.1813117 L54.4343128,11.1813117 C54.3098005,11.4275694 54.117501,11.6219441 53.8574085,11.7644416 C53.5973161,11.906939 53.3150923,11.9781867 53.0107288,11.9781867 Z M56.2189808,11.9325324 L57.1196155,11.9325324 L57.1196155,9.24307926 C57.1196155,8.92488105 57.2060811,8.67101803 57.379015,8.48148258 C57.5519488,8.29194712 57.7878269,8.19718082 58.0866566,8.19718082 C58.1751987,8.19718082 58.2568222,8.20271462 58.3315296,8.21378238 C58.406237,8.22485015 58.461575,8.23730119 58.4975452,8.2511359 L58.4975452,7.4086066 C58.4643419,7.40030578 58.4200715,7.39338853 58.3647327,7.38785465 C58.3093939,7.38232077 58.2485221,7.37955387 58.1821155,7.37955387 C57.9192562,7.37955387 57.6902952,7.45080153 57.4952259,7.59329898 C57.3001566,7.73579644 57.1666537,7.93293802 57.0947132,8.18472965 L57.0781116,8.18472965 L57.0781116,7.42520816 L56.2189808,7.42520816 L56.2189808,11.9325324 Z M59.0744495,11.9325324 L59.9750843,11.9325324 L59.9750843,9.16837223 C59.9750843,8.87507649 60.0650085,8.63158934 60.2448597,8.43790348 C60.4247108,8.24421761 60.65298,8.14737613 60.9296741,8.14737613 C61.1925335,8.14737613 61.4021262,8.22484932 61.5584583,8.37979801 C61.7147905,8.5347467 61.7929554,8.74226415 61.7929554,9.0023566 L61.7929554,11.9325324 L62.6769886,11.9325324 L62.6769886,9.1351691 C62.6769886,8.84740725 62.7648376,8.61083735 62.9405384,8.4254523 C63.1162391,8.24006726 63.3424332,8.14737613 63.6191273,8.14737613 C63.9013552,8.14737613 64.1185568,8.22830794 64.2707386,8.39017398 C64.4229203,8.55204003 64.4990101,8.78100095 64.4990101,9.07706363 L64.4990101,11.9325324 L65.3954944,11.9325324 L65.3954944,8.86124332 C65.3954944,8.41023195 65.2619915,8.0498433 64.9949818,7.78006656 C64.727972,7.51028982 64.3717337,7.37540348 63.9262562,7.37540348 C63.605291,7.37540348 63.3196087,7.45287666 63.0692005,7.60782535 C62.8187923,7.76277404 62.6341018,7.97720875 62.5151234,8.2511359 L62.4943714,8.2511359 C62.4058293,7.97167486 62.2515746,7.75585671 62.0316028,7.60367496 C61.811631,7.45149321 61.545317,7.37540348 61.2326526,7.37540348 C60.93659,7.37540348 60.6744263,7.44803459 60.4461536,7.59329898 C60.217881,7.73856338 60.0525588,7.93708841 59.9501819,8.18888004 L59.9335804,8.18888004 L59.9335804,7.42520816 L59.0744495,7.42520816 L59.0744495,11.9325324 Z" id="Disarm" fill="#FFFFFF"></path>
                </g>
            </g>
            <path d="M50.4406738,223.022789 L50.1954346,222.352135 C50.0319409,221.90503 49.8450938,221.389532 49.6348877,220.805626 C49.4246816,220.22172 49.2395028,219.707891 49.0793457,219.264122 L48.8391113,218.598473 L42.7731934,218.598473 L41.1716309,223.022789 L39.7202148,223.022789 L45.1254883,208.578697 L46.4868164,208.578697 L51.8820801,223.022789 L50.4406738,223.022789 Z M45.776123,210.270348 L45.5158691,210.991051 C45.3423657,211.471522 45.1271579,212.067097 44.8702393,212.777794 C44.6133207,213.488491 44.3547376,214.199177 44.0944824,214.909874 C43.8342272,215.620571 43.6173511,216.216146 43.4438477,216.696617 L43.1835938,217.41732 L48.4287109,217.41732 L45.8261719,210.270348 L45.776123,210.270348 Z M54.8349609,209.799889 L54.8349609,215.895836 L58.5285645,215.895836 C59.5762585,215.895836 60.3920462,215.628912 60.9759521,215.095055 C61.5598581,214.561198 61.8518066,213.810473 61.8518066,212.842858 C61.8518066,211.888588 61.553185,211.142868 60.9559326,210.605675 C60.3586803,210.068481 59.5328829,209.799889 58.4785156,209.799889 L54.8349609,209.799889 Z M54.8349609,217.107018 L54.8349609,223.022789 L53.4736328,223.022789 L53.4736328,208.578697 L58.6386719,208.578697 C60.0533925,208.578697 61.1778116,208.960733 62.0119629,209.724816 C62.8461142,210.488898 63.2631836,211.514889 63.2631836,212.802818 C63.2631836,213.82382 62.9895861,214.696329 62.4423828,215.420372 C61.8951796,216.144415 61.1377815,216.633221 60.170166,216.886803 L63.6635742,223.022789 L62.0720215,223.022789 L58.7487793,217.107018 L54.8349609,217.107018 Z M79.388916,223.022789 L79.388916,208.578697 L77.807373,208.578697 L72.4621582,221.221031 L72.4020996,221.221031 L67.046875,208.578697 L65.4753418,208.578697 L65.4753418,223.022789 L66.7565918,223.022789 L66.7565918,211.171227 L66.8166504,211.171227 L71.831543,222.952721 L73.0227051,222.952721 L78.0476074,211.171227 L78.107666,211.171227 L78.107666,223.022789 L79.388916,223.022789 Z M90.8100586,221.781578 L83.4528809,221.781578 L83.4528809,216.236168 L90.4396973,216.236168 L90.4396973,215.014977 L83.4528809,215.014977 L83.4528809,209.819908 L90.8100586,209.819908 L90.8100586,208.578697 L82.0915527,208.578697 L82.0915527,223.022789 L90.8100586,223.022789 L90.8100586,221.781578 Z M93.142334,208.578697 L97.8969727,208.578697 C100.059093,208.578697 101.740717,209.210975 102.941895,210.475548 C104.143072,211.740121 104.743652,213.5135 104.743652,215.795738 C104.743652,218.08465 104.144741,219.861365 102.946899,221.125939 C101.749058,222.390512 100.065766,223.022789 97.8969727,223.022789 L93.142334,223.022789 L93.142334,208.578697 Z M94.5136719,209.819908 L94.5136719,221.781578 L97.8168945,221.781578 C99.5919685,221.781578 100.958288,221.264412 101.915894,220.230065 C102.873499,219.195717 103.352295,217.72096 103.352295,215.805748 C103.352295,213.87719 102.873499,212.397428 101.915894,211.366417 C100.958288,210.335406 99.5919685,209.819908 97.8168945,209.819908 L94.5136719,209.819908 Z" id="ARMED" fill="#9D4DDE" mask="url(#mask-2)"></path>
            <g id="date-line" mask="url(#mask-2)">
                <g transform="translate(14.000000, 155.878204)">
                    <g id="Group-868" transform="translate(0.379943, 0.922929)">
                        <text id="11:33am" font-family="LucidaGrande, Lucida Grande" font-size="4.5" font-weight="normal" fill="#9D4DDE">
                            <tspan x="0.296340265" y="4.17800278">11:33am</tspan>
                        </text>
                        <text id="2:14pm" font-family="LucidaGrande, Lucida Grande" font-size="4.5" font-weight="normal" fill="#9D4DDE">
                            <tspan x="46.4296254" y="4.17800278">2:14pm</tspan>
                        </text>
                        <text id="6:46pm" font-family="LucidaGrande, Lucida Grande" font-size="4.5" font-weight="normal" fill="#9D4DDE">
                            <tspan x="95.0953469" y="4.17800278">6:46pm</tspan>
                        </text>
                        <path d="M9.5276957,11.2724178 L130.356555,11.2724178" id="Stroke-857" stroke="#F1EFF6" stroke-width="0.5"></path>
                    </g>
                    <g id="Group-864" transform="translate(54.008617, 10.480010)">
                        <mask id="mask-11" fill="white">
                            <use xlink:href="#path-10"></use>
                        </mask>
                        <g id="Clip-863"></g>
                        <polygon id="Fill-862" fill="#9D4DDE" mask="url(#mask-11)" points="-1.97658573 -1.97658573 5.53444005 -1.97658573 5.53444005 5.53444005 -1.97658573 5.53444005"></polygon>
                    </g>
                    <g id="Group-864-Copy" transform="translate(102.728751, 10.380207)">
                        <mask id="mask-13" fill="white">
                            <use xlink:href="#path-12"></use>
                        </mask>
                        <g id="Clip-863"></g>
                        <polygon id="Fill-862" fill="#9D4DDE" mask="url(#mask-13)" points="-1.97658573 -1.97658573 5.53444005 -1.97658573 5.53444005 5.53444005 -1.97658573 5.53444005"></polygon>
                    </g>
                    <g id="Group-861" transform="translate(8.523158, 10.167835)">
                        <mask id="mask-15" fill="white">
                            <use xlink:href="#path-14"></use>
                        </mask>
                        <g id="Clip-860"></g>
                        <polygon id="Fill-859" fill="#9D4DDE" mask="url(#mask-15)" points="-1.78786051 -1.78786051 5.72115362 -1.78786051 5.72115362 5.72115362 -1.78786051 5.72115362"></polygon>
                    </g>
                </g>
            </g>
        </g>
    </g>
</svg>